<mxfile host="Electron" modified="2023-04-26T11:31:10.310Z" agent="Mozilla/5.0 (Windows NT 10.0; Win64; x64) AppleWebKit/537.36 (KHTML, like Gecko) draw.io/21.2.1 Chrome/112.0.5615.87 Electron/24.1.2 Safari/537.36" etag="6O3JD-w6n8MAkNzMswNU" version="21.2.1" type="device">
  <diagram id="u6w0vgpRJaas2tgboFGm" name="Page-1">
    <mxGraphModel dx="448" dy="261" grid="1" gridSize="10" guides="1" tooltips="1" connect="1" arrows="1" fold="1" page="1" pageScale="1" pageWidth="1654" pageHeight="1169" math="0" shadow="0">
      <root>
        <mxCell id="0" />
        <mxCell id="1" parent="0" />
        <mxCell id="1nyOireFhNk5vsuvswtc-55" value="" style="edgeStyle=orthogonalEdgeStyle;shape=connector;rounded=1;orthogonalLoop=1;jettySize=auto;html=1;labelBackgroundColor=default;strokeColor=default;fontFamily=Helvetica;fontSize=11;fontColor=default;endArrow=none;endFill=0;fillColor=none;startArrow=none;" parent="1" source="gJ5ldzgGzaQahjb0mv15-4" target="1nyOireFhNk5vsuvswtc-54" edge="1">
          <mxGeometry relative="1" as="geometry" />
        </mxCell>
        <mxCell id="gJ5ldzgGzaQahjb0mv15-6" style="edgeStyle=orthogonalEdgeStyle;rounded=1;orthogonalLoop=1;jettySize=auto;html=1;entryX=0;entryY=0.5;entryDx=0;entryDy=0;endArrow=none;endFill=0;fillColor=none;" parent="1" source="1nyOireFhNk5vsuvswtc-1" target="gJ5ldzgGzaQahjb0mv15-3" edge="1">
          <mxGeometry relative="1" as="geometry" />
        </mxCell>
        <mxCell id="1nyOireFhNk5vsuvswtc-1" value="Manager" style="rounded=0;whiteSpace=wrap;html=1;fillColor=#1ba1e2;strokeColor=#006EAF;fontColor=#ffffff;" parent="1" vertex="1">
          <mxGeometry x="240" y="105" width="120" height="60" as="geometry" />
        </mxCell>
        <mxCell id="25Zu7PeEIxpEX03kHfXG-22" style="edgeStyle=orthogonalEdgeStyle;shape=connector;rounded=1;orthogonalLoop=1;jettySize=auto;html=1;entryX=0;entryY=0.5;entryDx=0;entryDy=0;labelBackgroundColor=default;strokeColor=default;fontFamily=Helvetica;fontSize=13;fontColor=default;endArrow=none;endFill=0;fillColor=none;" parent="1" source="1nyOireFhNk5vsuvswtc-3" target="1nyOireFhNk5vsuvswtc-176" edge="1">
          <mxGeometry relative="1" as="geometry" />
        </mxCell>
        <mxCell id="1nyOireFhNk5vsuvswtc-3" value="CoachingStaff" style="rounded=0;whiteSpace=wrap;html=1;fontSize=13;fillColor=#1ba1e2;strokeColor=#006EAF;fontColor=#ffffff;" parent="1" vertex="1">
          <mxGeometry x="240" y="260" width="120" height="60" as="geometry" />
        </mxCell>
        <mxCell id="1nyOireFhNk5vsuvswtc-4" value="" style="shape=flexArrow;endArrow=classic;html=1;rounded=0;fontSize=13;endWidth=22.916666666666668;endSize=10.116666666666667;width=17.5;exitX=0.5;exitY=1;exitDx=0;exitDy=0;entryX=0.541;entryY=-0.016;entryDx=0;entryDy=0;entryPerimeter=0;" parent="1" source="1nyOireFhNk5vsuvswtc-3" target="1nyOireFhNk5vsuvswtc-5" edge="1">
          <mxGeometry width="50" height="50" relative="1" as="geometry">
            <mxPoint x="299.46" y="485" as="sourcePoint" />
            <mxPoint x="299" y="665" as="targetPoint" />
          </mxGeometry>
        </mxCell>
        <mxCell id="1nyOireFhNk5vsuvswtc-5" value="Person" style="rounded=0;whiteSpace=wrap;html=1;fontSize=13;fillColor=#1ba1e2;strokeColor=#006EAF;fontColor=#ffffff;" parent="1" vertex="1">
          <mxGeometry x="235" y="712" width="120" height="60" as="geometry" />
        </mxCell>
        <mxCell id="1nyOireFhNk5vsuvswtc-52" style="edgeStyle=orthogonalEdgeStyle;shape=connector;rounded=1;orthogonalLoop=1;jettySize=auto;html=1;entryX=0;entryY=0.5;entryDx=0;entryDy=0;labelBackgroundColor=default;strokeColor=default;fontFamily=Helvetica;fontSize=11;fontColor=default;endArrow=none;endFill=0;fillColor=none;" parent="1" source="1nyOireFhNk5vsuvswtc-6" target="1nyOireFhNk5vsuvswtc-50" edge="1">
          <mxGeometry relative="1" as="geometry" />
        </mxCell>
        <mxCell id="1nyOireFhNk5vsuvswtc-59" value="" style="edgeStyle=orthogonalEdgeStyle;shape=connector;rounded=1;orthogonalLoop=1;jettySize=auto;html=1;labelBackgroundColor=default;strokeColor=default;fontFamily=Helvetica;fontSize=11;fontColor=default;endArrow=none;endFill=0;fillColor=none;" parent="1" source="1nyOireFhNk5vsuvswtc-6" target="1nyOireFhNk5vsuvswtc-58" edge="1">
          <mxGeometry relative="1" as="geometry" />
        </mxCell>
        <mxCell id="1nyOireFhNk5vsuvswtc-6" value="Player" style="rounded=0;whiteSpace=wrap;html=1;fontSize=13;fillColor=#1ba1e2;fontColor=#ffffff;strokeColor=#006EAF;" parent="1" vertex="1">
          <mxGeometry x="545" y="712" width="120" height="60" as="geometry" />
        </mxCell>
        <mxCell id="1nyOireFhNk5vsuvswtc-10" value="" style="shape=flexArrow;endArrow=classic;html=1;rounded=0;fontSize=13;endWidth=19.545454545454543;endSize=9.754545454545454;width=17.5;exitX=0;exitY=0.5;exitDx=0;exitDy=0;" parent="1" source="1nyOireFhNk5vsuvswtc-6" edge="1">
          <mxGeometry width="50" height="50" relative="1" as="geometry">
            <mxPoint x="435.46000000000004" y="712" as="sourcePoint" />
            <mxPoint x="360" y="742" as="targetPoint" />
          </mxGeometry>
        </mxCell>
        <mxCell id="1nyOireFhNk5vsuvswtc-43" style="edgeStyle=orthogonalEdgeStyle;shape=connector;rounded=1;orthogonalLoop=1;jettySize=auto;html=1;entryX=1.002;entryY=0.396;entryDx=0;entryDy=0;labelBackgroundColor=default;strokeColor=default;fontFamily=Helvetica;fontSize=11;fontColor=default;endArrow=none;endFill=0;fillColor=none;entryPerimeter=0;exitX=0;exitY=0.5;exitDx=0;exitDy=0;" parent="1" source="1nyOireFhNk5vsuvswtc-11" target="1nyOireFhNk5vsuvswtc-5" edge="1">
          <mxGeometry relative="1" as="geometry">
            <Array as="points">
              <mxPoint x="370" y="475" />
              <mxPoint x="370" y="736" />
            </Array>
          </mxGeometry>
        </mxCell>
        <mxCell id="cyQam68AUp5a6yiPko8j-16" style="edgeStyle=orthogonalEdgeStyle;shape=connector;rounded=1;orthogonalLoop=1;jettySize=auto;html=1;entryX=0;entryY=0.5;entryDx=0;entryDy=0;labelBackgroundColor=default;strokeColor=default;fontFamily=Helvetica;fontSize=13;fontColor=default;endArrow=none;endFill=0;fillColor=none;exitX=0.5;exitY=0;exitDx=0;exitDy=0;" parent="1" source="1nyOireFhNk5vsuvswtc-11" target="1nyOireFhNk5vsuvswtc-14" edge="1">
          <mxGeometry relative="1" as="geometry" />
        </mxCell>
        <mxCell id="1nyOireFhNk5vsuvswtc-11" value="HasStateC" style="rhombus;whiteSpace=wrap;html=1;fontSize=13;fillColor=#1ba1e2;fontColor=#ffffff;strokeColor=#006EAF;" parent="1" vertex="1">
          <mxGeometry x="440" y="435" width="80" height="80" as="geometry" />
        </mxCell>
        <mxCell id="1nyOireFhNk5vsuvswtc-14" value="StateOfContract" style="whiteSpace=wrap;html=1;fontSize=13;fillColor=#1ba1e2;fontColor=#ffffff;strokeColor=#006EAF;" parent="1" vertex="1">
          <mxGeometry x="550" y="260" width="120" height="60" as="geometry" />
        </mxCell>
        <mxCell id="1nyOireFhNk5vsuvswtc-19" value="" style="shape=flexArrow;endArrow=classic;html=1;rounded=0;fontSize=13;entryX=0.5;entryY=0;entryDx=0;entryDy=0;exitX=0.5;exitY=1;exitDx=0;exitDy=0;width=17.27272727272727;endSize=8.027272727272727;fillColor=none;" parent="1" source="1nyOireFhNk5vsuvswtc-1" target="1nyOireFhNk5vsuvswtc-3" edge="1">
          <mxGeometry width="50" height="50" relative="1" as="geometry">
            <mxPoint x="280" y="225" as="sourcePoint" />
            <mxPoint x="330" y="175" as="targetPoint" />
          </mxGeometry>
        </mxCell>
        <mxCell id="1nyOireFhNk5vsuvswtc-20" value="ContractWith" style="rhombus;whiteSpace=wrap;html=1;fontSize=13;fillColor=#1ba1e2;fontColor=#ffffff;strokeColor=#006EAF;" parent="1" vertex="1">
          <mxGeometry x="848.5" y="250" width="92" height="80" as="geometry" />
        </mxCell>
        <mxCell id="1nyOireFhNk5vsuvswtc-22" value="" style="endArrow=none;html=1;rounded=1;fillColor=none;exitX=1;exitY=0.5;exitDx=0;exitDy=0;entryX=0;entryY=0.5;entryDx=0;entryDy=0;" parent="1" source="1nyOireFhNk5vsuvswtc-14" target="1nyOireFhNk5vsuvswtc-20" edge="1">
          <mxGeometry width="50" height="50" relative="1" as="geometry">
            <mxPoint x="580" y="340" as="sourcePoint" />
            <mxPoint x="630" y="290" as="targetPoint" />
          </mxGeometry>
        </mxCell>
        <mxCell id="1nyOireFhNk5vsuvswtc-46" value="" style="edgeStyle=orthogonalEdgeStyle;shape=connector;rounded=1;orthogonalLoop=1;jettySize=auto;html=1;labelBackgroundColor=default;strokeColor=default;fontFamily=Helvetica;fontSize=11;fontColor=default;endArrow=none;endFill=0;fillColor=none;" parent="1" source="1nyOireFhNk5vsuvswtc-23" target="1nyOireFhNk5vsuvswtc-45" edge="1">
          <mxGeometry relative="1" as="geometry" />
        </mxCell>
        <mxCell id="1nyOireFhNk5vsuvswtc-153" style="edgeStyle=orthogonalEdgeStyle;shape=connector;rounded=1;orthogonalLoop=1;jettySize=auto;html=1;entryX=0;entryY=0.5;entryDx=0;entryDy=0;labelBackgroundColor=default;strokeColor=default;fontFamily=Helvetica;fontSize=13;fontColor=default;endArrow=none;endFill=0;fillColor=none;" parent="1" source="1nyOireFhNk5vsuvswtc-23" target="1nyOireFhNk5vsuvswtc-147" edge="1">
          <mxGeometry relative="1" as="geometry" />
        </mxCell>
        <mxCell id="1nyOireFhNk5vsuvswtc-23" value="Team" style="whiteSpace=wrap;html=1;fontSize=13;fillColor=#1ba1e2;strokeColor=#006EAF;fontColor=#ffffff;" parent="1" vertex="1">
          <mxGeometry x="1130" y="260" width="120" height="60" as="geometry" />
        </mxCell>
        <mxCell id="1nyOireFhNk5vsuvswtc-25" value="" style="endArrow=none;html=1;rounded=1;fillColor=none;entryX=0;entryY=0.5;entryDx=0;entryDy=0;exitX=1;exitY=0.5;exitDx=0;exitDy=0;" parent="1" source="1nyOireFhNk5vsuvswtc-20" target="1nyOireFhNk5vsuvswtc-23" edge="1">
          <mxGeometry width="50" height="50" relative="1" as="geometry">
            <mxPoint x="770" y="340" as="sourcePoint" />
            <mxPoint x="820" y="290" as="targetPoint" />
          </mxGeometry>
        </mxCell>
        <mxCell id="cyQam68AUp5a6yiPko8j-46" style="edgeStyle=orthogonalEdgeStyle;shape=connector;rounded=1;orthogonalLoop=1;jettySize=auto;html=1;entryX=0.5;entryY=0;entryDx=0;entryDy=0;labelBackgroundColor=default;strokeColor=default;fontFamily=Helvetica;fontSize=13;fontColor=default;endArrow=none;endFill=0;fillColor=none;" parent="1" source="1nyOireFhNk5vsuvswtc-37" target="1nyOireFhNk5vsuvswtc-6" edge="1">
          <mxGeometry relative="1" as="geometry" />
        </mxCell>
        <mxCell id="cyQam68AUp5a6yiPko8j-54" style="edgeStyle=orthogonalEdgeStyle;shape=connector;rounded=1;orthogonalLoop=1;jettySize=auto;html=1;entryX=0;entryY=0.5;entryDx=0;entryDy=0;labelBackgroundColor=default;strokeColor=default;fontFamily=Helvetica;fontSize=13;fontColor=default;endArrow=none;endFill=0;fillColor=none;" parent="1" source="1nyOireFhNk5vsuvswtc-37" target="cyQam68AUp5a6yiPko8j-47" edge="1">
          <mxGeometry relative="1" as="geometry" />
        </mxCell>
        <mxCell id="1nyOireFhNk5vsuvswtc-37" value="HasStateP" style="rhombus;whiteSpace=wrap;html=1;fontSize=13;fillColor=#1ba1e2;strokeColor=#006EAF;fontColor=#ffffff;rounded=0;" parent="1" vertex="1">
          <mxGeometry x="565" y="435" width="80" height="80" as="geometry" />
        </mxCell>
        <mxCell id="1nyOireFhNk5vsuvswtc-48" value="" style="edgeStyle=orthogonalEdgeStyle;shape=connector;rounded=1;orthogonalLoop=1;jettySize=auto;html=1;labelBackgroundColor=default;strokeColor=default;fontFamily=Helvetica;fontSize=11;fontColor=default;endArrow=none;endFill=0;fillColor=none;" parent="1" source="1nyOireFhNk5vsuvswtc-45" target="1nyOireFhNk5vsuvswtc-47" edge="1">
          <mxGeometry relative="1" as="geometry" />
        </mxCell>
        <mxCell id="1nyOireFhNk5vsuvswtc-45" value="T-Sponsorhsip" style="rhombus;whiteSpace=wrap;html=1;fontSize=13;fillColor=#1ba1e2;strokeColor=#006EAF;fontColor=#ffffff;" parent="1" vertex="1">
          <mxGeometry x="1120" y="445" width="140" height="110" as="geometry" />
        </mxCell>
        <mxCell id="1nyOireFhNk5vsuvswtc-51" value="" style="edgeStyle=orthogonalEdgeStyle;shape=connector;rounded=1;orthogonalLoop=1;jettySize=auto;html=1;labelBackgroundColor=default;strokeColor=default;fontFamily=Helvetica;fontSize=11;fontColor=default;endArrow=none;endFill=0;fillColor=none;" parent="1" source="1nyOireFhNk5vsuvswtc-47" target="1nyOireFhNk5vsuvswtc-50" edge="1">
          <mxGeometry relative="1" as="geometry" />
        </mxCell>
        <mxCell id="1nyOireFhNk5vsuvswtc-47" value="Sponsor" style="whiteSpace=wrap;html=1;fontSize=13;fillColor=#1ba1e2;strokeColor=#006EAF;fontColor=#ffffff;" parent="1" vertex="1">
          <mxGeometry x="1130" y="712" width="120" height="60" as="geometry" />
        </mxCell>
        <mxCell id="1nyOireFhNk5vsuvswtc-50" value="P-Sponsorhip" style="rhombus;whiteSpace=wrap;html=1;fontSize=13;fillColor=#1ba1e2;strokeColor=#006EAF;fontColor=#ffffff;" parent="1" vertex="1">
          <mxGeometry x="817" y="682.5" width="130" height="120" as="geometry" />
        </mxCell>
        <mxCell id="1nyOireFhNk5vsuvswtc-56" style="edgeStyle=orthogonalEdgeStyle;shape=connector;rounded=1;orthogonalLoop=1;jettySize=auto;html=1;entryX=0.5;entryY=0;entryDx=0;entryDy=0;labelBackgroundColor=default;strokeColor=default;fontFamily=Helvetica;fontSize=11;fontColor=default;endArrow=none;endFill=0;fillColor=none;" parent="1" source="1nyOireFhNk5vsuvswtc-54" target="1nyOireFhNk5vsuvswtc-23" edge="1">
          <mxGeometry relative="1" as="geometry" />
        </mxCell>
        <mxCell id="1nyOireFhNk5vsuvswtc-54" value="Manages" style="rhombus;whiteSpace=wrap;html=1;fillColor=#1ba1e2;strokeColor=#006EAF;fontColor=#ffffff;rounded=0;" parent="1" vertex="1">
          <mxGeometry x="1010" y="95" width="80" height="80" as="geometry" />
        </mxCell>
        <mxCell id="1nyOireFhNk5vsuvswtc-61" value="" style="edgeStyle=orthogonalEdgeStyle;shape=connector;rounded=1;orthogonalLoop=1;jettySize=auto;html=1;labelBackgroundColor=default;strokeColor=default;fontFamily=Helvetica;fontSize=11;fontColor=default;endArrow=none;endFill=0;fillColor=none;" parent="1" source="1nyOireFhNk5vsuvswtc-58" edge="1">
          <mxGeometry relative="1" as="geometry">
            <mxPoint x="605" y="1012" as="targetPoint" />
          </mxGeometry>
        </mxCell>
        <mxCell id="1nyOireFhNk5vsuvswtc-58" value="Plays" style="rhombus;whiteSpace=wrap;html=1;fontSize=13;fillColor=#1ba1e2;strokeColor=#006EAF;fontColor=#ffffff;rounded=0;" parent="1" vertex="1">
          <mxGeometry x="565" y="842" width="80" height="80" as="geometry" />
        </mxCell>
        <mxCell id="PQA37V6N7CLmbWVco3Oz-91" style="edgeStyle=orthogonalEdgeStyle;shape=connector;rounded=1;orthogonalLoop=1;jettySize=auto;html=1;entryX=0;entryY=0.5;entryDx=0;entryDy=0;labelBackgroundColor=default;strokeColor=default;fontFamily=Helvetica;fontSize=13;fontColor=default;endArrow=none;endFill=0;fillColor=none;exitX=1.001;exitY=0.895;exitDx=0;exitDy=0;exitPerimeter=0;" parent="1" source="1nyOireFhNk5vsuvswtc-60" target="PQA37V6N7CLmbWVco3Oz-90" edge="1">
          <mxGeometry relative="1" as="geometry" />
        </mxCell>
        <mxCell id="1nyOireFhNk5vsuvswtc-60" value="Position" style="whiteSpace=wrap;html=1;fontSize=13;fillColor=#1ba1e2;strokeColor=#006EAF;fontColor=#ffffff;rounded=0;" parent="1" vertex="1">
          <mxGeometry x="545" y="1012" width="120" height="60" as="geometry" />
        </mxCell>
        <mxCell id="1nyOireFhNk5vsuvswtc-125" style="edgeStyle=orthogonalEdgeStyle;shape=connector;rounded=1;orthogonalLoop=1;jettySize=auto;html=1;entryX=-0.002;entryY=0.12;entryDx=0;entryDy=0;entryPerimeter=0;labelBackgroundColor=default;strokeColor=default;fontFamily=Helvetica;fontSize=13;fontColor=default;endArrow=none;endFill=0;fillColor=none;" parent="1" source="1nyOireFhNk5vsuvswtc-86" target="1nyOireFhNk5vsuvswtc-5" edge="1">
          <mxGeometry relative="1" as="geometry" />
        </mxCell>
        <mxCell id="1nyOireFhNk5vsuvswtc-86" value="name" style="ellipse;whiteSpace=wrap;html=1;fontSize=13;rounded=0;" parent="1" vertex="1">
          <mxGeometry x="150" y="707.5" width="57.5" height="25" as="geometry" />
        </mxCell>
        <mxCell id="1nyOireFhNk5vsuvswtc-102" style="edgeStyle=orthogonalEdgeStyle;shape=connector;rounded=1;orthogonalLoop=1;jettySize=auto;html=1;entryX=0.534;entryY=-0.052;entryDx=0;entryDy=0;entryPerimeter=0;labelBackgroundColor=default;strokeColor=default;fontFamily=Helvetica;fontSize=13;fontColor=default;endArrow=none;endFill=0;fillColor=none;" parent="1" source="1nyOireFhNk5vsuvswtc-91" target="1nyOireFhNk5vsuvswtc-86" edge="1">
          <mxGeometry relative="1" as="geometry" />
        </mxCell>
        <mxCell id="1nyOireFhNk5vsuvswtc-91" value="" style="ellipse;whiteSpace=wrap;html=1;fontSize=13;rounded=0;" parent="1" vertex="1">
          <mxGeometry x="100" y="680" width="15" height="15" as="geometry" />
        </mxCell>
        <mxCell id="1nyOireFhNk5vsuvswtc-97" style="edgeStyle=orthogonalEdgeStyle;shape=connector;rounded=1;orthogonalLoop=1;jettySize=auto;html=1;labelBackgroundColor=default;strokeColor=default;fontFamily=Helvetica;fontSize=13;fontColor=default;endArrow=none;endFill=0;fillColor=none;" parent="1" source="1nyOireFhNk5vsuvswtc-96" target="1nyOireFhNk5vsuvswtc-86" edge="1">
          <mxGeometry relative="1" as="geometry" />
        </mxCell>
        <mxCell id="1nyOireFhNk5vsuvswtc-96" value="" style="ellipse;whiteSpace=wrap;html=1;fontSize=13;rounded=0;" parent="1" vertex="1">
          <mxGeometry x="100" y="712.5" width="15" height="15" as="geometry" />
        </mxCell>
        <mxCell id="1nyOireFhNk5vsuvswtc-101" style="edgeStyle=orthogonalEdgeStyle;shape=connector;rounded=1;orthogonalLoop=1;jettySize=auto;html=1;entryX=0.5;entryY=1;entryDx=0;entryDy=0;labelBackgroundColor=default;strokeColor=default;fontFamily=Helvetica;fontSize=13;fontColor=default;endArrow=none;endFill=0;fillColor=none;" parent="1" source="1nyOireFhNk5vsuvswtc-100" target="1nyOireFhNk5vsuvswtc-86" edge="1">
          <mxGeometry relative="1" as="geometry" />
        </mxCell>
        <mxCell id="1nyOireFhNk5vsuvswtc-100" value="" style="ellipse;whiteSpace=wrap;html=1;fontSize=13;rounded=0;" parent="1" vertex="1">
          <mxGeometry x="100" y="745" width="15" height="15" as="geometry" />
        </mxCell>
        <mxCell id="1nyOireFhNk5vsuvswtc-104" value="(0,n)" style="text;html=1;align=center;verticalAlign=middle;resizable=0;points=[];autosize=1;strokeColor=none;fillColor=none;fontSize=13;fontFamily=Helvetica;fontColor=default;" parent="1" vertex="1">
          <mxGeometry x="110" y="725" width="50" height="30" as="geometry" />
        </mxCell>
        <mxCell id="1nyOireFhNk5vsuvswtc-105" value="(0,n)" style="text;html=1;align=center;verticalAlign=middle;resizable=0;points=[];autosize=1;strokeColor=none;fillColor=none;fontSize=13;fontFamily=Helvetica;fontColor=default;" parent="1" vertex="1">
          <mxGeometry x="110" y="695" width="50" height="30" as="geometry" />
        </mxCell>
        <mxCell id="1nyOireFhNk5vsuvswtc-107" value="(1,n)" style="text;html=1;align=center;verticalAlign=middle;resizable=0;points=[];autosize=1;strokeColor=none;fillColor=none;fontSize=13;fontFamily=Helvetica;fontColor=default;" parent="1" vertex="1">
          <mxGeometry x="110" y="660" width="50" height="30" as="geometry" />
        </mxCell>
        <mxCell id="1nyOireFhNk5vsuvswtc-108" value="firstName" style="text;html=1;align=center;verticalAlign=middle;resizable=0;points=[];autosize=1;strokeColor=none;fillColor=none;fontSize=13;fontFamily=Helvetica;fontColor=default;" parent="1" vertex="1">
          <mxGeometry x="20" y="672.5" width="80" height="30" as="geometry" />
        </mxCell>
        <mxCell id="1nyOireFhNk5vsuvswtc-109" value="middleName" style="text;html=1;align=center;verticalAlign=middle;resizable=0;points=[];autosize=1;strokeColor=none;fillColor=none;fontSize=13;fontFamily=Helvetica;fontColor=default;" parent="1" vertex="1">
          <mxGeometry x="10" y="735" width="100" height="30" as="geometry" />
        </mxCell>
        <mxCell id="1nyOireFhNk5vsuvswtc-110" value="lastName" style="text;html=1;align=center;verticalAlign=middle;resizable=0;points=[];autosize=1;strokeColor=none;fillColor=none;fontSize=13;fontFamily=Helvetica;fontColor=default;" parent="1" vertex="1">
          <mxGeometry x="20" y="702.5" width="80" height="30" as="geometry" />
        </mxCell>
        <mxCell id="1nyOireFhNk5vsuvswtc-116" style="edgeStyle=orthogonalEdgeStyle;shape=connector;rounded=1;orthogonalLoop=1;jettySize=auto;html=1;entryX=0.146;entryY=1;entryDx=0;entryDy=0;entryPerimeter=0;labelBackgroundColor=default;strokeColor=default;fontFamily=Helvetica;fontSize=13;fontColor=default;endArrow=none;endFill=0;fillColor=none;" parent="1" source="1nyOireFhNk5vsuvswtc-115" target="1nyOireFhNk5vsuvswtc-5" edge="1">
          <mxGeometry relative="1" as="geometry">
            <Array as="points">
              <mxPoint x="253" y="782" />
              <mxPoint x="253" y="782" />
            </Array>
          </mxGeometry>
        </mxCell>
        <mxCell id="1nyOireFhNk5vsuvswtc-115" value="" style="ellipse;whiteSpace=wrap;html=1;fontSize=13;rounded=0;" parent="1" vertex="1">
          <mxGeometry x="245" y="822" width="15" height="15" as="geometry" />
        </mxCell>
        <mxCell id="1nyOireFhNk5vsuvswtc-120" value="personID" style="text;html=1;align=center;verticalAlign=middle;resizable=0;points=[];autosize=1;strokeColor=none;fillColor=none;fontSize=13;fontFamily=Helvetica;fontColor=default;" parent="1" vertex="1">
          <mxGeometry x="95" y="749.5" width="80" height="30" as="geometry" />
        </mxCell>
        <mxCell id="1nyOireFhNk5vsuvswtc-124" value="dob" style="text;html=1;align=center;verticalAlign=middle;resizable=0;points=[];autosize=1;strokeColor=none;fillColor=none;fontSize=13;fontFamily=Helvetica;fontColor=default;" parent="1" vertex="1">
          <mxGeometry x="227.5" y="832" width="50" height="30" as="geometry" />
        </mxCell>
        <mxCell id="1nyOireFhNk5vsuvswtc-128" style="edgeStyle=orthogonalEdgeStyle;shape=connector;rounded=1;orthogonalLoop=1;jettySize=auto;html=1;entryX=0.007;entryY=0.886;entryDx=0;entryDy=0;entryPerimeter=0;labelBackgroundColor=default;strokeColor=default;fontFamily=Helvetica;fontSize=13;fontColor=default;endArrow=none;endFill=0;fillColor=none;" parent="1" source="1nyOireFhNk5vsuvswtc-127" target="1nyOireFhNk5vsuvswtc-5" edge="1">
          <mxGeometry relative="1" as="geometry" />
        </mxCell>
        <mxCell id="1nyOireFhNk5vsuvswtc-127" value="" style="ellipse;whiteSpace=wrap;html=1;fontSize=13;rounded=0;fillColor=#000000;" parent="1" vertex="1">
          <mxGeometry x="167.5" y="757" width="15" height="15" as="geometry" />
        </mxCell>
        <mxCell id="25Zu7PeEIxpEX03kHfXG-13" style="edgeStyle=orthogonalEdgeStyle;shape=connector;rounded=1;orthogonalLoop=1;jettySize=auto;html=1;entryX=-0.008;entryY=0.119;entryDx=0;entryDy=0;entryPerimeter=0;labelBackgroundColor=default;strokeColor=default;fontFamily=Helvetica;fontSize=13;fontColor=default;endArrow=none;endFill=0;fillColor=none;" parent="1" source="1nyOireFhNk5vsuvswtc-131" target="1nyOireFhNk5vsuvswtc-3" edge="1">
          <mxGeometry relative="1" as="geometry" />
        </mxCell>
        <mxCell id="1nyOireFhNk5vsuvswtc-131" value="" style="ellipse;whiteSpace=wrap;html=1;fontSize=13;rounded=0;" parent="1" vertex="1">
          <mxGeometry x="185" y="260" width="15" height="15" as="geometry" />
        </mxCell>
        <mxCell id="1nyOireFhNk5vsuvswtc-133" value="role" style="text;html=1;align=center;verticalAlign=middle;resizable=0;points=[];autosize=1;strokeColor=none;fillColor=none;fontSize=13;fontFamily=Helvetica;fontColor=default;" parent="1" vertex="1">
          <mxGeometry x="142.5" y="250" width="50" height="30" as="geometry" />
        </mxCell>
        <mxCell id="1nyOireFhNk5vsuvswtc-142" value="(1,n)" style="text;html=1;align=center;verticalAlign=middle;resizable=0;points=[];autosize=1;strokeColor=none;fillColor=none;fontSize=13;fontFamily=Helvetica;fontColor=default;" parent="1" vertex="1">
          <mxGeometry x="560" y="772" width="50" height="30" as="geometry" />
        </mxCell>
        <mxCell id="1nyOireFhNk5vsuvswtc-143" value="(1,n)" style="text;html=1;align=center;verticalAlign=middle;resizable=0;points=[];autosize=1;strokeColor=none;fillColor=none;fontSize=13;fontFamily=Helvetica;fontColor=default;" parent="1" vertex="1">
          <mxGeometry x="560" y="982" width="50" height="30" as="geometry" />
        </mxCell>
        <mxCell id="1nyOireFhNk5vsuvswtc-155" style="edgeStyle=orthogonalEdgeStyle;shape=connector;rounded=1;orthogonalLoop=1;jettySize=auto;html=1;entryX=0.996;entryY=0.126;entryDx=0;entryDy=0;entryPerimeter=0;labelBackgroundColor=default;strokeColor=default;fontFamily=Helvetica;fontSize=13;fontColor=default;endArrow=none;endFill=0;fillColor=none;" parent="1" source="1nyOireFhNk5vsuvswtc-146" target="1nyOireFhNk5vsuvswtc-23" edge="1">
          <mxGeometry relative="1" as="geometry" />
        </mxCell>
        <mxCell id="1nyOireFhNk5vsuvswtc-146" value="" style="ellipse;whiteSpace=wrap;html=1;fontSize=13;rounded=0;fillColor=none;" parent="1" vertex="1">
          <mxGeometry x="1300" y="260" width="15" height="15" as="geometry" />
        </mxCell>
        <mxCell id="1nyOireFhNk5vsuvswtc-147" value="" style="ellipse;whiteSpace=wrap;html=1;fontSize=13;rounded=0;fillColor=#000000;" parent="1" vertex="1">
          <mxGeometry x="1300" y="282.5" width="15" height="15" as="geometry" />
        </mxCell>
        <mxCell id="1nyOireFhNk5vsuvswtc-156" style="edgeStyle=orthogonalEdgeStyle;shape=connector;rounded=1;orthogonalLoop=1;jettySize=auto;html=1;entryX=0.99;entryY=0.872;entryDx=0;entryDy=0;entryPerimeter=0;labelBackgroundColor=default;strokeColor=default;fontFamily=Helvetica;fontSize=13;fontColor=default;endArrow=none;endFill=0;fillColor=none;" parent="1" source="1nyOireFhNk5vsuvswtc-148" target="1nyOireFhNk5vsuvswtc-23" edge="1">
          <mxGeometry relative="1" as="geometry" />
        </mxCell>
        <mxCell id="1nyOireFhNk5vsuvswtc-148" value="" style="ellipse;whiteSpace=wrap;html=1;fontSize=13;rounded=0;" parent="1" vertex="1">
          <mxGeometry x="1300" y="305" width="15" height="15" as="geometry" />
        </mxCell>
        <mxCell id="1nyOireFhNk5vsuvswtc-157" value="name" style="text;html=1;align=center;verticalAlign=middle;resizable=0;points=[];autosize=1;strokeColor=none;fillColor=none;fontSize=13;fontFamily=Helvetica;fontColor=default;" parent="1" vertex="1">
          <mxGeometry x="1310" y="252.5" width="60" height="30" as="geometry" />
        </mxCell>
        <mxCell id="1nyOireFhNk5vsuvswtc-160" value="teamID" style="text;html=1;align=center;verticalAlign=middle;resizable=0;points=[];autosize=1;strokeColor=none;fillColor=none;fontSize=13;fontFamily=Helvetica;fontColor=default;" parent="1" vertex="1">
          <mxGeometry x="1310" y="275" width="70" height="30" as="geometry" />
        </mxCell>
        <mxCell id="1nyOireFhNk5vsuvswtc-161" value="city" style="text;html=1;align=center;verticalAlign=middle;resizable=0;points=[];autosize=1;strokeColor=none;fillColor=none;fontSize=13;fontFamily=Helvetica;fontColor=default;" parent="1" vertex="1">
          <mxGeometry x="1315" y="295" width="40" height="30" as="geometry" />
        </mxCell>
        <mxCell id="1nyOireFhNk5vsuvswtc-165" style="edgeStyle=orthogonalEdgeStyle;shape=connector;rounded=1;orthogonalLoop=1;jettySize=auto;html=1;entryX=0.996;entryY=0.128;entryDx=0;entryDy=0;entryPerimeter=0;labelBackgroundColor=default;strokeColor=default;fontFamily=Helvetica;fontSize=13;fontColor=default;endArrow=none;endFill=0;fillColor=none;" parent="1" source="1nyOireFhNk5vsuvswtc-162" target="1nyOireFhNk5vsuvswtc-47" edge="1">
          <mxGeometry relative="1" as="geometry" />
        </mxCell>
        <mxCell id="1nyOireFhNk5vsuvswtc-162" value="" style="ellipse;whiteSpace=wrap;html=1;fontSize=13;rounded=0;fillColor=none;" parent="1" vertex="1">
          <mxGeometry x="1280" y="712.5" width="15" height="15" as="geometry" />
        </mxCell>
        <mxCell id="1nyOireFhNk5vsuvswtc-170" value="(1,3)" style="text;html=1;align=center;verticalAlign=middle;resizable=0;points=[];autosize=1;strokeColor=none;fillColor=none;fontSize=13;fontFamily=Helvetica;fontColor=default;" parent="1" vertex="1">
          <mxGeometry x="1210" y="235" width="50" height="30" as="geometry" />
        </mxCell>
        <mxCell id="1nyOireFhNk5vsuvswtc-171" value="name" style="text;html=1;align=center;verticalAlign=middle;resizable=0;points=[];autosize=1;strokeColor=none;fillColor=none;fontSize=13;fontFamily=Helvetica;fontColor=default;" parent="1" vertex="1">
          <mxGeometry x="1285" y="742.5" width="60" height="30" as="geometry" />
        </mxCell>
        <mxCell id="1nyOireFhNk5vsuvswtc-172" value="(0,n)" style="text;html=1;align=center;verticalAlign=middle;resizable=0;points=[];autosize=1;strokeColor=none;fillColor=none;fontSize=13;fontFamily=Helvetica;fontColor=default;" parent="1" vertex="1">
          <mxGeometry x="767" y="716" width="50" height="30" as="geometry" />
        </mxCell>
        <mxCell id="1nyOireFhNk5vsuvswtc-173" value="(0,n)" style="text;html=1;align=center;verticalAlign=middle;resizable=0;points=[];autosize=1;strokeColor=none;fillColor=none;fontSize=13;fontFamily=Helvetica;fontColor=default;" parent="1" vertex="1">
          <mxGeometry x="1065" y="715" width="50" height="30" as="geometry" />
        </mxCell>
        <mxCell id="1nyOireFhNk5vsuvswtc-174" value="(1,1)" style="text;html=1;align=center;verticalAlign=middle;resizable=0;points=[];autosize=1;strokeColor=none;fillColor=none;fontSize=13;fontFamily=Helvetica;fontColor=default;" parent="1" vertex="1">
          <mxGeometry x="470" y="257.5" width="50" height="30" as="geometry" />
        </mxCell>
        <mxCell id="25Zu7PeEIxpEX03kHfXG-18" style="edgeStyle=orthogonalEdgeStyle;shape=connector;rounded=1;orthogonalLoop=1;jettySize=auto;html=1;entryX=0.5;entryY=0;entryDx=0;entryDy=0;labelBackgroundColor=default;strokeColor=default;fontFamily=Helvetica;fontSize=13;fontColor=default;endArrow=none;endFill=0;fillColor=none;" parent="1" source="1nyOireFhNk5vsuvswtc-176" target="1nyOireFhNk5vsuvswtc-6" edge="1">
          <mxGeometry relative="1" as="geometry">
            <Array as="points">
              <mxPoint x="604.5" y="618" />
            </Array>
          </mxGeometry>
        </mxCell>
        <mxCell id="1nyOireFhNk5vsuvswtc-176" value="Trains" style="rhombus;whiteSpace=wrap;html=1;fontSize=13;fillColor=#1ba1e2;strokeColor=#006EAF;fontColor=#ffffff;rounded=0;" parent="1" vertex="1">
          <mxGeometry x="440" y="577.5" width="80" height="80" as="geometry" />
        </mxCell>
        <mxCell id="1nyOireFhNk5vsuvswtc-181" value="" style="ellipse;whiteSpace=wrap;html=1;fontSize=13;rounded=0;" parent="1" vertex="1">
          <mxGeometry x="1220" y="415" width="15" height="15" as="geometry" />
        </mxCell>
        <mxCell id="1nyOireFhNk5vsuvswtc-201" value="(1,n)" style="text;html=1;align=center;verticalAlign=middle;resizable=0;points=[];autosize=1;strokeColor=none;fillColor=none;fontSize=13;fontFamily=Helvetica;fontColor=default;" parent="1" vertex="1">
          <mxGeometry x="565" y="515" width="50" height="30" as="geometry" />
        </mxCell>
        <mxCell id="1nyOireFhNk5vsuvswtc-202" value="(0,n)" style="text;html=1;align=center;verticalAlign=middle;resizable=0;points=[];autosize=1;strokeColor=none;fillColor=none;fontSize=13;fontFamily=Helvetica;fontColor=default;" parent="1" vertex="1">
          <mxGeometry x="930" y="447.5" width="50" height="30" as="geometry" />
        </mxCell>
        <mxCell id="1nyOireFhNk5vsuvswtc-203" value="(0,n)" style="text;html=1;align=center;verticalAlign=middle;resizable=0;points=[];autosize=1;strokeColor=none;fillColor=none;fontSize=13;fontFamily=Helvetica;fontColor=default;" parent="1" vertex="1">
          <mxGeometry x="352.5" y="265" width="50" height="30" as="geometry" />
        </mxCell>
        <mxCell id="1nyOireFhNk5vsuvswtc-204" value="(0,n)" style="text;html=1;align=center;verticalAlign=middle;resizable=0;points=[];autosize=1;strokeColor=none;fillColor=none;fontSize=13;fontFamily=Helvetica;fontColor=default;" parent="1" vertex="1">
          <mxGeometry x="515" y="590" width="50" height="30" as="geometry" />
        </mxCell>
        <mxCell id="1nyOireFhNk5vsuvswtc-205" value="(1,1)" style="text;html=1;align=center;verticalAlign=middle;resizable=0;points=[];autosize=1;strokeColor=none;fillColor=none;fontSize=13;fontFamily=Helvetica;fontColor=default;" parent="1" vertex="1">
          <mxGeometry x="682.5" y="265" width="50" height="30" as="geometry" />
        </mxCell>
        <mxCell id="1nyOireFhNk5vsuvswtc-206" value="(0,n)" style="text;html=1;align=center;verticalAlign=middle;resizable=0;points=[];autosize=1;strokeColor=none;fillColor=none;fontSize=13;fontFamily=Helvetica;fontColor=default;" parent="1" vertex="1">
          <mxGeometry x="930" y="257.5" width="50" height="30" as="geometry" />
        </mxCell>
        <mxCell id="1nyOireFhNk5vsuvswtc-209" value="type" style="text;html=1;align=center;verticalAlign=middle;resizable=0;points=[];autosize=1;strokeColor=none;fillColor=none;fontSize=13;fontFamily=Helvetica;fontColor=default;" parent="1" vertex="1">
          <mxGeometry x="1282.5" y="440" width="50" height="30" as="geometry" />
        </mxCell>
        <mxCell id="1nyOireFhNk5vsuvswtc-213" value="(0,n)" style="text;html=1;align=center;verticalAlign=middle;resizable=0;points=[];autosize=1;strokeColor=none;fillColor=none;fontSize=13;fontFamily=Helvetica;fontColor=default;" parent="1" vertex="1">
          <mxGeometry x="1145" y="552.5" width="50" height="30" as="geometry" />
        </mxCell>
        <mxCell id="1nyOireFhNk5vsuvswtc-214" value="(0,2)" style="text;html=1;align=center;verticalAlign=middle;resizable=0;points=[];autosize=1;strokeColor=none;fillColor=none;fontSize=13;fontFamily=Helvetica;fontColor=default;" parent="1" vertex="1">
          <mxGeometry x="1150" y="312.5" width="50" height="30" as="geometry" />
        </mxCell>
        <mxCell id="1nyOireFhNk5vsuvswtc-220" value="(1,n)" style="text;html=1;align=center;verticalAlign=middle;resizable=0;points=[];autosize=1;strokeColor=none;fillColor=none;fontSize=13;fontFamily=Helvetica;fontColor=default;" parent="1" vertex="1">
          <mxGeometry x="402.5" y="447.5" width="50" height="30" as="geometry" />
        </mxCell>
        <mxCell id="PQA37V6N7CLmbWVco3Oz-9" style="edgeStyle=orthogonalEdgeStyle;rounded=1;orthogonalLoop=1;jettySize=auto;html=1;entryX=0.75;entryY=0;entryDx=0;entryDy=0;endArrow=none;fontSize=13;endFill=0;fillColor=none;" parent="1" source="PQA37V6N7CLmbWVco3Oz-6" target="1nyOireFhNk5vsuvswtc-23" edge="1">
          <mxGeometry relative="1" as="geometry" />
        </mxCell>
        <mxCell id="PQA37V6N7CLmbWVco3Oz-6" value="" style="ellipse;whiteSpace=wrap;html=1;fontSize=13;rounded=0;fillColor=none;" parent="1" vertex="1">
          <mxGeometry x="1212.5" y="210" width="15" height="15" as="geometry" />
        </mxCell>
        <mxCell id="PQA37V6N7CLmbWVco3Oz-8" value="kitColors" style="text;html=1;align=center;verticalAlign=middle;resizable=0;points=[];autosize=1;strokeColor=none;fillColor=none;fontSize=13;fontFamily=Helvetica;fontColor=default;" parent="1" vertex="1">
          <mxGeometry x="1185" y="175" width="70" height="30" as="geometry" />
        </mxCell>
        <mxCell id="PQA37V6N7CLmbWVco3Oz-20" value="" style="endArrow=none;html=1;rounded=1;labelBackgroundColor=default;strokeColor=default;fontFamily=Helvetica;fontSize=13;fontColor=default;fillColor=none;shape=connector;entryX=0.119;entryY=0.875;entryDx=0;entryDy=0;entryPerimeter=0;exitX=0.562;exitY=0.055;exitDx=0;exitDy=0;exitPerimeter=0;" parent="1" source="1nyOireFhNk5vsuvswtc-45" target="1nyOireFhNk5vsuvswtc-181" edge="1">
          <mxGeometry width="50" height="50" relative="1" as="geometry">
            <mxPoint x="1200" y="450" as="sourcePoint" />
            <mxPoint x="1220" y="430" as="targetPoint" />
            <Array as="points">
              <mxPoint x="1210" y="440" />
            </Array>
          </mxGeometry>
        </mxCell>
        <mxCell id="PQA37V6N7CLmbWVco3Oz-21" value="" style="ellipse;whiteSpace=wrap;html=1;fontSize=13;rounded=0;" parent="1" vertex="1">
          <mxGeometry x="1245" y="432.5" width="15" height="15" as="geometry" />
        </mxCell>
        <mxCell id="PQA37V6N7CLmbWVco3Oz-22" value="" style="endArrow=none;html=1;rounded=1;labelBackgroundColor=default;strokeColor=default;fontFamily=Helvetica;fontSize=13;fontColor=default;fillColor=none;shape=connector;exitX=0.734;exitY=0.223;exitDx=0;exitDy=0;exitPerimeter=0;" parent="1" source="1nyOireFhNk5vsuvswtc-45" edge="1">
          <mxGeometry width="50" height="50" relative="1" as="geometry">
            <mxPoint x="1207.5" y="485" as="sourcePoint" />
            <mxPoint x="1247.5" y="445" as="targetPoint" />
          </mxGeometry>
        </mxCell>
        <mxCell id="PQA37V6N7CLmbWVco3Oz-23" value="startDate" style="text;html=1;align=center;verticalAlign=middle;resizable=0;points=[];autosize=1;strokeColor=none;fillColor=none;fontSize=13;fontFamily=Helvetica;fontColor=default;" parent="1" vertex="1">
          <mxGeometry x="1227.5" y="400" width="80" height="30" as="geometry" />
        </mxCell>
        <mxCell id="PQA37V6N7CLmbWVco3Oz-25" value="" style="ellipse;whiteSpace=wrap;html=1;fontSize=13;rounded=0;" parent="1" vertex="1">
          <mxGeometry x="1275" y="455" width="15" height="15" as="geometry" />
        </mxCell>
        <mxCell id="PQA37V6N7CLmbWVco3Oz-26" value="" style="endArrow=none;html=1;rounded=1;labelBackgroundColor=default;strokeColor=default;fontFamily=Helvetica;fontSize=13;fontColor=default;fillColor=none;shape=connector;entryX=0.212;entryY=0.921;entryDx=0;entryDy=0;entryPerimeter=0;exitX=0.952;exitY=0.448;exitDx=0;exitDy=0;exitPerimeter=0;" parent="1" source="1nyOireFhNk5vsuvswtc-45" target="PQA37V6N7CLmbWVco3Oz-25" edge="1">
          <mxGeometry width="50" height="50" relative="1" as="geometry">
            <mxPoint x="1227.5" y="520" as="sourcePoint" />
            <mxPoint x="1277.5" y="470" as="targetPoint" />
          </mxGeometry>
        </mxCell>
        <mxCell id="PQA37V6N7CLmbWVco3Oz-27" value="endDate" style="text;html=1;align=center;verticalAlign=middle;resizable=0;points=[];autosize=1;strokeColor=none;fillColor=none;fontSize=13;fontFamily=Helvetica;fontColor=default;" parent="1" vertex="1">
          <mxGeometry x="1255" y="420" width="70" height="30" as="geometry" />
        </mxCell>
        <mxCell id="PQA37V6N7CLmbWVco3Oz-29" value="" style="ellipse;whiteSpace=wrap;html=1;fontSize=13;rounded=0;" parent="1" vertex="1">
          <mxGeometry x="919.5" y="645" width="15" height="15" as="geometry" />
        </mxCell>
        <mxCell id="PQA37V6N7CLmbWVco3Oz-30" value="type" style="text;html=1;align=center;verticalAlign=middle;resizable=0;points=[];autosize=1;strokeColor=none;fillColor=none;fontSize=13;fontFamily=Helvetica;fontColor=default;" parent="1" vertex="1">
          <mxGeometry x="980" y="680" width="50" height="30" as="geometry" />
        </mxCell>
        <mxCell id="PQA37V6N7CLmbWVco3Oz-31" value="" style="ellipse;whiteSpace=wrap;html=1;fontSize=13;rounded=0;" parent="1" vertex="1">
          <mxGeometry x="942" y="671.5" width="15" height="15" as="geometry" />
        </mxCell>
        <mxCell id="PQA37V6N7CLmbWVco3Oz-33" value="startDate" style="text;html=1;align=center;verticalAlign=middle;resizable=0;points=[];autosize=1;strokeColor=none;fillColor=none;fontSize=13;fontFamily=Helvetica;fontColor=default;" parent="1" vertex="1">
          <mxGeometry x="930" y="635" width="80" height="30" as="geometry" />
        </mxCell>
        <mxCell id="PQA37V6N7CLmbWVco3Oz-34" value="" style="ellipse;whiteSpace=wrap;html=1;fontSize=13;rounded=0;" parent="1" vertex="1">
          <mxGeometry x="967" y="690.5" width="15" height="15" as="geometry" />
        </mxCell>
        <mxCell id="PQA37V6N7CLmbWVco3Oz-37" value="" style="endArrow=none;html=1;rounded=1;labelBackgroundColor=default;strokeColor=default;fontFamily=Helvetica;fontSize=13;fontColor=default;fillColor=none;shape=connector;exitX=0.771;exitY=0.272;exitDx=0;exitDy=0;exitPerimeter=0;" parent="1" source="1nyOireFhNk5vsuvswtc-50" edge="1">
          <mxGeometry width="50" height="50" relative="1" as="geometry">
            <mxPoint x="897" y="735.5" as="sourcePoint" />
            <mxPoint x="947" y="685.5" as="targetPoint" />
          </mxGeometry>
        </mxCell>
        <mxCell id="PQA37V6N7CLmbWVco3Oz-38" value="" style="endArrow=none;html=1;rounded=1;labelBackgroundColor=default;strokeColor=default;fontFamily=Helvetica;fontSize=13;fontColor=default;fillColor=none;shape=connector;entryX=0.236;entryY=0.97;entryDx=0;entryDy=0;entryPerimeter=0;exitX=0.959;exitY=0.453;exitDx=0;exitDy=0;exitPerimeter=0;" parent="1" source="1nyOireFhNk5vsuvswtc-50" target="PQA37V6N7CLmbWVco3Oz-34" edge="1">
          <mxGeometry width="50" height="50" relative="1" as="geometry">
            <mxPoint x="932" y="752.5" as="sourcePoint" />
            <mxPoint x="982" y="702.5" as="targetPoint" />
          </mxGeometry>
        </mxCell>
        <mxCell id="PQA37V6N7CLmbWVco3Oz-39" value="" style="endArrow=none;html=1;rounded=1;labelBackgroundColor=default;strokeColor=default;fontFamily=Helvetica;fontSize=13;fontColor=default;fillColor=none;shape=connector;exitX=0.568;exitY=0.059;exitDx=0;exitDy=0;exitPerimeter=0;" parent="1" source="1nyOireFhNk5vsuvswtc-50" edge="1">
          <mxGeometry width="50" height="50" relative="1" as="geometry">
            <mxPoint x="872" y="708" as="sourcePoint" />
            <mxPoint x="922" y="658" as="targetPoint" />
          </mxGeometry>
        </mxCell>
        <mxCell id="PQA37V6N7CLmbWVco3Oz-40" value="endDate" style="text;html=1;align=center;verticalAlign=middle;resizable=0;points=[];autosize=1;strokeColor=none;fillColor=none;fontSize=13;fontFamily=Helvetica;fontColor=default;" parent="1" vertex="1">
          <mxGeometry x="950" y="660" width="70" height="30" as="geometry" />
        </mxCell>
        <mxCell id="PQA37V6N7CLmbWVco3Oz-64" value="Captain" style="rounded=0;whiteSpace=wrap;html=1;fontFamily=Helvetica;fontSize=13;fontColor=#ffffff;fillColor=#1ba1e2;strokeColor=#006EAF;" parent="1" vertex="1">
          <mxGeometry x="900" y="545" width="120" height="60" as="geometry" />
        </mxCell>
        <mxCell id="PQA37V6N7CLmbWVco3Oz-78" style="edgeStyle=orthogonalEdgeStyle;shape=connector;rounded=1;orthogonalLoop=1;jettySize=auto;html=1;labelBackgroundColor=default;strokeColor=default;fontFamily=Helvetica;fontSize=13;fontColor=default;endArrow=none;endFill=0;fillColor=none;exitX=-0.014;exitY=0.507;exitDx=0;exitDy=0;exitPerimeter=0;" parent="1" source="PQA37V6N7CLmbWVco3Oz-67" target="PQA37V6N7CLmbWVco3Oz-64" edge="1">
          <mxGeometry relative="1" as="geometry">
            <Array as="points">
              <mxPoint x="960" y="501" />
            </Array>
          </mxGeometry>
        </mxCell>
        <mxCell id="25Zu7PeEIxpEX03kHfXG-24" style="edgeStyle=orthogonalEdgeStyle;shape=connector;rounded=1;orthogonalLoop=1;jettySize=auto;html=1;entryX=0;entryY=0.5;entryDx=0;entryDy=0;labelBackgroundColor=default;strokeColor=default;fontFamily=Helvetica;fontSize=13;fontColor=default;endArrow=none;endFill=0;fillColor=none;" parent="1" source="PQA37V6N7CLmbWVco3Oz-67" target="1nyOireFhNk5vsuvswtc-23" edge="1">
          <mxGeometry relative="1" as="geometry" />
        </mxCell>
        <mxCell id="PQA37V6N7CLmbWVco3Oz-67" value="Leads" style="rhombus;whiteSpace=wrap;html=1;fontSize=13;fillColor=#1ba1e2;strokeColor=#006EAF;fontColor=#ffffff;rounded=0;" parent="1" vertex="1">
          <mxGeometry x="1010" y="460" width="80" height="80" as="geometry" />
        </mxCell>
        <mxCell id="PQA37V6N7CLmbWVco3Oz-75" value="" style="shape=flexArrow;endArrow=classic;html=1;rounded=1;labelBackgroundColor=default;strokeColor=default;fontFamily=Helvetica;fontSize=13;fontColor=default;fillColor=none;entryX=1;entryY=0.25;entryDx=0;entryDy=0;exitX=-0.019;exitY=0.513;exitDx=0;exitDy=0;exitPerimeter=0;" parent="1" source="PQA37V6N7CLmbWVco3Oz-64" target="1nyOireFhNk5vsuvswtc-6" edge="1">
          <mxGeometry width="50" height="50" relative="1" as="geometry">
            <mxPoint x="895" y="577.5" as="sourcePoint" />
            <mxPoint x="675" y="727.5" as="targetPoint" />
          </mxGeometry>
        </mxCell>
        <mxCell id="PQA37V6N7CLmbWVco3Oz-76" value="(1,1)" style="text;html=1;align=center;verticalAlign=middle;resizable=0;points=[];autosize=1;strokeColor=none;fillColor=none;fontSize=13;fontFamily=Helvetica;fontColor=default;" parent="1" vertex="1">
          <mxGeometry x="917.5" y="515" width="50" height="30" as="geometry" />
        </mxCell>
        <mxCell id="PQA37V6N7CLmbWVco3Oz-81" style="edgeStyle=orthogonalEdgeStyle;shape=connector;rounded=1;orthogonalLoop=1;jettySize=auto;html=1;labelBackgroundColor=default;strokeColor=default;fontFamily=Helvetica;fontSize=13;fontColor=default;endArrow=none;endFill=0;fillColor=none;entryX=1.001;entryY=0.296;entryDx=0;entryDy=0;entryPerimeter=0;" parent="1" source="PQA37V6N7CLmbWVco3Oz-80" target="PQA37V6N7CLmbWVco3Oz-64" edge="1">
          <mxGeometry relative="1" as="geometry">
            <Array as="points">
              <mxPoint x="1022.5" y="563" />
            </Array>
            <mxPoint x="1022.5" y="563" as="targetPoint" />
          </mxGeometry>
        </mxCell>
        <mxCell id="PQA37V6N7CLmbWVco3Oz-80" value="" style="ellipse;whiteSpace=wrap;html=1;fontSize=13;rounded=0;" parent="1" vertex="1">
          <mxGeometry x="1050" y="555" width="15" height="15" as="geometry" />
        </mxCell>
        <mxCell id="PQA37V6N7CLmbWVco3Oz-82" value="seniority" style="text;html=1;align=center;verticalAlign=middle;resizable=0;points=[];autosize=1;strokeColor=none;fillColor=none;fontSize=13;fontFamily=Helvetica;fontColor=default;" parent="1" vertex="1">
          <mxGeometry x="1060" y="547.5" width="70" height="30" as="geometry" />
        </mxCell>
        <mxCell id="PQA37V6N7CLmbWVco3Oz-83" value="(1,1)" style="text;html=1;align=center;verticalAlign=middle;resizable=0;points=[];autosize=1;strokeColor=none;fillColor=none;fontSize=13;fontFamily=Helvetica;fontColor=default;" parent="1" vertex="1">
          <mxGeometry x="1065" y="447.5" width="50" height="30" as="geometry" />
        </mxCell>
        <mxCell id="PQA37V6N7CLmbWVco3Oz-84" value="(1,n)" style="text;html=1;align=center;verticalAlign=middle;resizable=0;points=[];autosize=1;strokeColor=none;fillColor=none;fontSize=13;fontFamily=Helvetica;fontColor=default;" parent="1" vertex="1">
          <mxGeometry x="355" y="112.5" width="50" height="30" as="geometry" />
        </mxCell>
        <mxCell id="PQA37V6N7CLmbWVco3Oz-85" value="(0,n)" style="text;html=1;align=center;verticalAlign=middle;resizable=0;points=[];autosize=1;strokeColor=none;fillColor=none;fontSize=13;fontFamily=Helvetica;fontColor=default;" parent="1" vertex="1">
          <mxGeometry x="1085" y="105" width="50" height="30" as="geometry" />
        </mxCell>
        <mxCell id="PQA37V6N7CLmbWVco3Oz-90" value="" style="ellipse;whiteSpace=wrap;html=1;fontSize=13;rounded=0;" parent="1" vertex="1">
          <mxGeometry x="700" y="1057" width="15" height="15" as="geometry" />
        </mxCell>
        <mxCell id="PQA37V6N7CLmbWVco3Oz-92" value="type" style="text;html=1;align=center;verticalAlign=middle;resizable=0;points=[];autosize=1;strokeColor=none;fillColor=none;fontSize=13;fontFamily=Helvetica;fontColor=default;" parent="1" vertex="1">
          <mxGeometry x="717" y="1049.5" width="50" height="30" as="geometry" />
        </mxCell>
        <mxCell id="cyQam68AUp5a6yiPko8j-3" style="edgeStyle=orthogonalEdgeStyle;shape=connector;rounded=1;orthogonalLoop=1;jettySize=auto;html=1;entryX=0.188;entryY=0;entryDx=0;entryDy=0;entryPerimeter=0;labelBackgroundColor=default;strokeColor=default;fontFamily=Helvetica;fontSize=13;fontColor=default;endArrow=none;endFill=0;fillColor=none;" parent="1" source="cyQam68AUp5a6yiPko8j-2" target="1nyOireFhNk5vsuvswtc-23" edge="1">
          <mxGeometry relative="1" as="geometry" />
        </mxCell>
        <mxCell id="cyQam68AUp5a6yiPko8j-2" value="" style="ellipse;whiteSpace=wrap;html=1;fontSize=13;rounded=0;fillColor=none;" parent="1" vertex="1">
          <mxGeometry x="1145" y="210" width="15" height="15" as="geometry" />
        </mxCell>
        <mxCell id="cyQam68AUp5a6yiPko8j-4" value="foundationYear" style="text;html=1;align=center;verticalAlign=middle;resizable=0;points=[];autosize=1;strokeColor=none;fillColor=none;fontSize=13;fontFamily=Helvetica;fontColor=default;" parent="1" vertex="1">
          <mxGeometry x="1090" y="185" width="110" height="30" as="geometry" />
        </mxCell>
        <mxCell id="cyQam68AUp5a6yiPko8j-7" style="edgeStyle=orthogonalEdgeStyle;shape=connector;rounded=1;orthogonalLoop=1;jettySize=auto;html=1;entryX=0;entryY=0.5;entryDx=0;entryDy=0;labelBackgroundColor=default;strokeColor=default;fontFamily=Helvetica;fontSize=13;fontColor=default;endArrow=none;endFill=0;fillColor=none;" parent="1" source="cyQam68AUp5a6yiPko8j-6" target="1nyOireFhNk5vsuvswtc-1" edge="1">
          <mxGeometry relative="1" as="geometry" />
        </mxCell>
        <mxCell id="cyQam68AUp5a6yiPko8j-6" value="" style="ellipse;whiteSpace=wrap;html=1;fontSize=13;rounded=0;" parent="1" vertex="1">
          <mxGeometry x="182.5" y="127.5" width="15" height="15" as="geometry" />
        </mxCell>
        <mxCell id="cyQam68AUp5a6yiPko8j-8" value="yearsOfExperience" style="text;html=1;align=center;verticalAlign=middle;resizable=0;points=[];autosize=1;strokeColor=none;fillColor=none;fontSize=13;fontFamily=Helvetica;fontColor=default;" parent="1" vertex="1">
          <mxGeometry x="52.5" y="120" width="130" height="30" as="geometry" />
        </mxCell>
        <mxCell id="cyQam68AUp5a6yiPko8j-10" style="edgeStyle=orthogonalEdgeStyle;shape=connector;rounded=1;orthogonalLoop=1;jettySize=auto;html=1;entryX=0.148;entryY=0.002;entryDx=0;entryDy=0;entryPerimeter=0;labelBackgroundColor=default;strokeColor=default;fontFamily=Helvetica;fontSize=13;fontColor=default;endArrow=none;endFill=0;fillColor=none;" parent="1" source="cyQam68AUp5a6yiPko8j-9" target="1nyOireFhNk5vsuvswtc-6" edge="1">
          <mxGeometry relative="1" as="geometry" />
        </mxCell>
        <mxCell id="cyQam68AUp5a6yiPko8j-9" value="" style="ellipse;whiteSpace=wrap;html=1;fontSize=13;rounded=0;fillColor=#FFFFFF;" parent="1" vertex="1">
          <mxGeometry x="555" y="675" width="15" height="15" as="geometry" />
        </mxCell>
        <mxCell id="cyQam68AUp5a6yiPko8j-11" value="startingXI" style="text;html=1;align=center;verticalAlign=middle;resizable=0;points=[];autosize=1;strokeColor=none;fillColor=none;fontSize=13;fontFamily=Helvetica;fontColor=default;" parent="1" vertex="1">
          <mxGeometry x="522.5" y="645" width="80" height="30" as="geometry" />
        </mxCell>
        <mxCell id="cyQam68AUp5a6yiPko8j-13" style="edgeStyle=orthogonalEdgeStyle;shape=connector;rounded=1;orthogonalLoop=1;jettySize=auto;html=1;entryX=0.993;entryY=0.177;entryDx=0;entryDy=0;entryPerimeter=0;labelBackgroundColor=default;strokeColor=default;fontFamily=Helvetica;fontSize=13;fontColor=default;endArrow=none;endFill=0;fillColor=none;" parent="1" source="cyQam68AUp5a6yiPko8j-12" target="1nyOireFhNk5vsuvswtc-60" edge="1">
          <mxGeometry relative="1" as="geometry" />
        </mxCell>
        <mxCell id="cyQam68AUp5a6yiPko8j-12" value="" style="ellipse;whiteSpace=wrap;html=1;fontSize=13;rounded=0;fillColor=#000000;" parent="1" vertex="1">
          <mxGeometry x="700" y="1015" width="15" height="15" as="geometry" />
        </mxCell>
        <mxCell id="cyQam68AUp5a6yiPko8j-14" value="positionId" style="text;html=1;align=center;verticalAlign=middle;resizable=0;points=[];autosize=1;strokeColor=none;fillColor=none;fontSize=13;fontFamily=Helvetica;fontColor=default;" parent="1" vertex="1">
          <mxGeometry x="707" y="1007.5" width="80" height="30" as="geometry" />
        </mxCell>
        <mxCell id="cyQam68AUp5a6yiPko8j-43" style="edgeStyle=orthogonalEdgeStyle;shape=connector;rounded=1;orthogonalLoop=1;jettySize=auto;html=1;labelBackgroundColor=default;strokeColor=default;fontFamily=Helvetica;fontSize=13;fontColor=default;endArrow=none;endFill=0;fillColor=none;" parent="1" source="cyQam68AUp5a6yiPko8j-17" edge="1">
          <mxGeometry relative="1" as="geometry">
            <mxPoint x="557.5" y="260" as="targetPoint" />
          </mxGeometry>
        </mxCell>
        <mxCell id="cyQam68AUp5a6yiPko8j-17" value="" style="ellipse;whiteSpace=wrap;html=1;fontSize=13;rounded=0;" parent="1" vertex="1">
          <mxGeometry x="550" y="227.5" width="15" height="15" as="geometry" />
        </mxCell>
        <mxCell id="cyQam68AUp5a6yiPko8j-41" style="edgeStyle=orthogonalEdgeStyle;shape=connector;rounded=1;orthogonalLoop=1;jettySize=auto;html=1;entryX=0.938;entryY=0;entryDx=0;entryDy=0;entryPerimeter=0;labelBackgroundColor=default;strokeColor=default;fontFamily=Helvetica;fontSize=13;fontColor=default;endArrow=none;endFill=0;fillColor=none;" parent="1" source="cyQam68AUp5a6yiPko8j-20" target="1nyOireFhNk5vsuvswtc-14" edge="1">
          <mxGeometry relative="1" as="geometry">
            <Array as="points">
              <mxPoint x="662.5" y="262" />
              <mxPoint x="662.5" y="262" />
            </Array>
          </mxGeometry>
        </mxCell>
        <mxCell id="cyQam68AUp5a6yiPko8j-20" value="" style="ellipse;whiteSpace=wrap;html=1;fontSize=13;rounded=0;" parent="1" vertex="1">
          <mxGeometry x="655" y="227.5" width="15" height="15" as="geometry" />
        </mxCell>
        <mxCell id="cyQam68AUp5a6yiPko8j-24" value="startDate" style="text;html=1;align=center;verticalAlign=middle;resizable=0;points=[];autosize=1;strokeColor=none;fillColor=none;fontSize=13;fontFamily=Helvetica;fontColor=default;" parent="1" vertex="1">
          <mxGeometry x="505" y="205" width="80" height="30" as="geometry" />
        </mxCell>
        <mxCell id="cyQam68AUp5a6yiPko8j-26" value="" style="endArrow=none;html=1;rounded=1;labelBackgroundColor=default;strokeColor=default;fontFamily=Helvetica;fontSize=13;fontColor=default;fillColor=none;shape=connector;" parent="1" edge="1">
          <mxGeometry width="50" height="50" relative="1" as="geometry">
            <mxPoint x="530" y="320" as="sourcePoint" />
            <mxPoint x="530" y="250" as="targetPoint" />
          </mxGeometry>
        </mxCell>
        <mxCell id="cyQam68AUp5a6yiPko8j-28" value="" style="ellipse;whiteSpace=wrap;html=1;fontSize=13;rounded=0;fillColor=#000000;" parent="1" vertex="1">
          <mxGeometry x="565" y="242.5" width="15" height="15" as="geometry" />
        </mxCell>
        <mxCell id="cyQam68AUp5a6yiPko8j-32" value="" style="endArrow=none;html=1;rounded=1;labelBackgroundColor=default;strokeColor=default;fontFamily=Helvetica;fontSize=13;fontColor=default;fillColor=none;shape=connector;" parent="1" target="cyQam68AUp5a6yiPko8j-28" edge="1">
          <mxGeometry width="50" height="50" relative="1" as="geometry">
            <mxPoint x="530" y="249.91999999999996" as="sourcePoint" />
            <mxPoint x="600" y="249.91999999999996" as="targetPoint" />
          </mxGeometry>
        </mxCell>
        <mxCell id="cyQam68AUp5a6yiPko8j-36" value="&lt;span style=&quot;color: rgb(0, 0, 0); font-family: Helvetica; font-size: 13px; font-style: normal; font-variant-ligatures: normal; font-variant-caps: normal; font-weight: 400; letter-spacing: normal; orphans: 2; text-align: center; text-indent: 0px; text-transform: none; widows: 2; word-spacing: 0px; -webkit-text-stroke-width: 0px; background-color: rgb(248, 249, 250); text-decoration-thickness: initial; text-decoration-style: initial; text-decoration-color: initial; float: none; display: inline !important;&quot;&gt;endDate&lt;/span&gt;" style="text;whiteSpace=wrap;html=1;fontSize=13;fontFamily=Helvetica;fontColor=default;" parent="1" vertex="1">
          <mxGeometry x="585" y="205" width="50" height="20" as="geometry" />
        </mxCell>
        <mxCell id="cyQam68AUp5a6yiPko8j-40" style="edgeStyle=orthogonalEdgeStyle;shape=connector;rounded=1;orthogonalLoop=1;jettySize=auto;html=1;entryX=0.5;entryY=0;entryDx=0;entryDy=0;labelBackgroundColor=default;strokeColor=default;fontFamily=Helvetica;fontSize=13;fontColor=default;endArrow=none;endFill=0;fillColor=none;" parent="1" source="cyQam68AUp5a6yiPko8j-39" target="1nyOireFhNk5vsuvswtc-14" edge="1">
          <mxGeometry relative="1" as="geometry" />
        </mxCell>
        <mxCell id="cyQam68AUp5a6yiPko8j-39" value="" style="ellipse;whiteSpace=wrap;html=1;fontSize=13;rounded=0;" parent="1" vertex="1">
          <mxGeometry x="602.5" y="227.5" width="15" height="15" as="geometry" />
        </mxCell>
        <mxCell id="cyQam68AUp5a6yiPko8j-45" value="&lt;span style=&quot;color: rgb(0, 0, 0); font-family: Helvetica; font-size: 13px; font-style: normal; font-variant-ligatures: normal; font-variant-caps: normal; font-weight: 400; letter-spacing: normal; orphans: 2; text-align: center; text-indent: 0px; text-transform: none; widows: 2; word-spacing: 0px; -webkit-text-stroke-width: 0px; background-color: rgb(248, 249, 250); text-decoration-thickness: initial; text-decoration-style: initial; text-decoration-color: initial; float: none; display: inline !important;&quot;&gt;salary&lt;/span&gt;" style="text;whiteSpace=wrap;html=1;fontSize=13;fontFamily=Helvetica;fontColor=default;" parent="1" vertex="1">
          <mxGeometry x="645" y="205" width="50" height="20" as="geometry" />
        </mxCell>
        <mxCell id="cyQam68AUp5a6yiPko8j-51" style="edgeStyle=orthogonalEdgeStyle;shape=connector;rounded=1;orthogonalLoop=1;jettySize=auto;html=1;entryX=0;entryY=0.5;entryDx=0;entryDy=0;labelBackgroundColor=default;strokeColor=default;fontFamily=Helvetica;fontSize=13;fontColor=default;endArrow=none;endFill=0;fillColor=none;" parent="1" source="cyQam68AUp5a6yiPko8j-47" target="cyQam68AUp5a6yiPko8j-50" edge="1">
          <mxGeometry relative="1" as="geometry" />
        </mxCell>
        <mxCell id="cyQam68AUp5a6yiPko8j-47" value="StateOfPlaysFor" style="whiteSpace=wrap;html=1;fontFamily=Helvetica;fontSize=13;fontColor=#ffffff;fillColor=#1ba1e2;strokeColor=#006EAF;" parent="1" vertex="1">
          <mxGeometry x="697" y="445" width="120" height="60" as="geometry" />
        </mxCell>
        <mxCell id="25Zu7PeEIxpEX03kHfXG-23" style="edgeStyle=orthogonalEdgeStyle;shape=connector;rounded=1;orthogonalLoop=1;jettySize=auto;html=1;entryX=0;entryY=0.5;entryDx=0;entryDy=0;labelBackgroundColor=default;strokeColor=default;fontFamily=Helvetica;fontSize=13;fontColor=default;endArrow=none;endFill=0;fillColor=none;" parent="1" source="cyQam68AUp5a6yiPko8j-50" target="1nyOireFhNk5vsuvswtc-23" edge="1">
          <mxGeometry relative="1" as="geometry">
            <Array as="points">
              <mxPoint x="1002.5" y="475" />
              <mxPoint x="1002.5" y="290" />
            </Array>
          </mxGeometry>
        </mxCell>
        <mxCell id="cyQam68AUp5a6yiPko8j-50" value="PlaysFor" style="rhombus;whiteSpace=wrap;html=1;fontFamily=Helvetica;fontSize=13;fontColor=#ffffff;fillColor=#1ba1e2;strokeColor=#006EAF;" parent="1" vertex="1">
          <mxGeometry x="854.5" y="435" width="80" height="80" as="geometry" />
        </mxCell>
        <mxCell id="cyQam68AUp5a6yiPko8j-55" value="" style="endArrow=none;html=1;rounded=1;labelBackgroundColor=default;strokeColor=default;fontFamily=Helvetica;fontSize=13;fontColor=default;fillColor=none;shape=connector;" parent="1" edge="1">
          <mxGeometry width="50" height="50" relative="1" as="geometry">
            <mxPoint x="682.5" y="497.5" as="sourcePoint" />
            <mxPoint x="682.5" y="427.5" as="targetPoint" />
          </mxGeometry>
        </mxCell>
        <mxCell id="cyQam68AUp5a6yiPko8j-59" style="edgeStyle=orthogonalEdgeStyle;shape=connector;rounded=1;orthogonalLoop=1;jettySize=auto;html=1;labelBackgroundColor=default;strokeColor=default;fontFamily=Helvetica;fontSize=13;fontColor=default;endArrow=none;endFill=0;fillColor=none;" parent="1" source="cyQam68AUp5a6yiPko8j-56" edge="1">
          <mxGeometry relative="1" as="geometry">
            <mxPoint x="680" y="427.5" as="targetPoint" />
          </mxGeometry>
        </mxCell>
        <mxCell id="cyQam68AUp5a6yiPko8j-56" value="" style="ellipse;whiteSpace=wrap;html=1;fontSize=13;rounded=0;fillColor=#000000;" parent="1" vertex="1">
          <mxGeometry x="715" y="420" width="15" height="15" as="geometry" />
        </mxCell>
        <mxCell id="cyQam68AUp5a6yiPko8j-58" style="edgeStyle=orthogonalEdgeStyle;shape=connector;rounded=1;orthogonalLoop=1;jettySize=auto;html=1;entryX=0.047;entryY=0.019;entryDx=0;entryDy=0;entryPerimeter=0;labelBackgroundColor=default;strokeColor=default;fontFamily=Helvetica;fontSize=13;fontColor=default;endArrow=none;endFill=0;fillColor=none;" parent="1" source="cyQam68AUp5a6yiPko8j-57" target="cyQam68AUp5a6yiPko8j-47" edge="1">
          <mxGeometry relative="1" as="geometry" />
        </mxCell>
        <mxCell id="25Zu7PeEIxpEX03kHfXG-19" style="edgeStyle=orthogonalEdgeStyle;shape=connector;rounded=1;orthogonalLoop=1;jettySize=auto;html=1;exitX=0.5;exitY=1;exitDx=0;exitDy=0;labelBackgroundColor=default;strokeColor=default;fontFamily=Helvetica;fontSize=13;fontColor=default;endArrow=none;endFill=0;fillColor=none;" parent="1" source="cyQam68AUp5a6yiPko8j-57" edge="1">
          <mxGeometry relative="1" as="geometry">
            <mxPoint x="702.5" y="395" as="targetPoint" />
          </mxGeometry>
        </mxCell>
        <mxCell id="cyQam68AUp5a6yiPko8j-57" value="" style="ellipse;whiteSpace=wrap;html=1;fontSize=13;rounded=0;" parent="1" vertex="1">
          <mxGeometry x="695" y="395" width="15" height="15" as="geometry" />
        </mxCell>
        <mxCell id="cyQam68AUp5a6yiPko8j-60" value="startDate" style="text;html=1;align=center;verticalAlign=middle;resizable=0;points=[];autosize=1;strokeColor=none;fillColor=none;fontSize=13;fontFamily=Helvetica;fontColor=default;" parent="1" vertex="1">
          <mxGeometry x="662.5" y="365" width="80" height="30" as="geometry" />
        </mxCell>
        <mxCell id="cyQam68AUp5a6yiPko8j-62" value="jerseyNumber" style="text;html=1;align=center;verticalAlign=middle;resizable=0;points=[];autosize=1;strokeColor=none;fillColor=none;fontSize=13;fontFamily=Helvetica;fontColor=default;" parent="1" vertex="1">
          <mxGeometry x="754.5" y="365" width="100" height="30" as="geometry" />
        </mxCell>
        <mxCell id="cyQam68AUp5a6yiPko8j-66" style="edgeStyle=orthogonalEdgeStyle;shape=connector;rounded=1;orthogonalLoop=1;jettySize=auto;html=1;entryX=0.88;entryY=-0.027;entryDx=0;entryDy=0;entryPerimeter=0;labelBackgroundColor=default;strokeColor=default;fontFamily=Helvetica;fontSize=13;fontColor=default;endArrow=none;endFill=0;fillColor=none;" parent="1" source="cyQam68AUp5a6yiPko8j-63" target="cyQam68AUp5a6yiPko8j-47" edge="1">
          <mxGeometry relative="1" as="geometry" />
        </mxCell>
        <mxCell id="cyQam68AUp5a6yiPko8j-63" value="" style="ellipse;whiteSpace=wrap;html=1;fontSize=13;rounded=0;" parent="1" vertex="1">
          <mxGeometry x="795" y="395" width="15" height="15" as="geometry" />
        </mxCell>
        <mxCell id="cyQam68AUp5a6yiPko8j-68" style="edgeStyle=orthogonalEdgeStyle;shape=connector;rounded=1;orthogonalLoop=1;jettySize=auto;html=1;entryX=0.5;entryY=1;entryDx=0;entryDy=0;labelBackgroundColor=default;strokeColor=default;fontFamily=Helvetica;fontSize=13;fontColor=default;endArrow=none;endFill=0;fillColor=none;" parent="1" source="cyQam68AUp5a6yiPko8j-67" target="cyQam68AUp5a6yiPko8j-47" edge="1">
          <mxGeometry relative="1" as="geometry" />
        </mxCell>
        <mxCell id="cyQam68AUp5a6yiPko8j-67" value="" style="ellipse;whiteSpace=wrap;html=1;fontSize=13;rounded=0;" parent="1" vertex="1">
          <mxGeometry x="749.5" y="540" width="15" height="15" as="geometry" />
        </mxCell>
        <mxCell id="cyQam68AUp5a6yiPko8j-69" value="teamID" style="text;html=1;align=center;verticalAlign=middle;resizable=0;points=[];autosize=1;strokeColor=none;fillColor=none;fontSize=13;fontFamily=Helvetica;fontColor=default;" parent="1" vertex="1">
          <mxGeometry x="722" y="552.5" width="70" height="30" as="geometry" />
        </mxCell>
        <mxCell id="cyQam68AUp5a6yiPko8j-70" value="(1,1)" style="text;html=1;align=center;verticalAlign=middle;resizable=0;points=[];autosize=1;strokeColor=none;fillColor=none;fontSize=13;fontFamily=Helvetica;fontColor=default;" parent="1" vertex="1">
          <mxGeometry x="632.5" y="447.5" width="50" height="30" as="geometry" />
        </mxCell>
        <mxCell id="cyQam68AUp5a6yiPko8j-71" value="(1,1)" style="text;html=1;align=center;verticalAlign=middle;resizable=0;points=[];autosize=1;strokeColor=none;fillColor=none;fontSize=13;fontFamily=Helvetica;fontColor=default;" parent="1" vertex="1">
          <mxGeometry x="810" y="447.5" width="50" height="30" as="geometry" />
        </mxCell>
        <mxCell id="gJ5ldzgGzaQahjb0mv15-8" style="edgeStyle=orthogonalEdgeStyle;shape=connector;rounded=1;orthogonalLoop=1;jettySize=auto;html=1;labelBackgroundColor=default;strokeColor=default;fontFamily=Helvetica;fontSize=11;fontColor=default;endArrow=none;endFill=0;fillColor=none;" parent="1" source="gJ5ldzgGzaQahjb0mv15-3" target="gJ5ldzgGzaQahjb0mv15-4" edge="1">
          <mxGeometry relative="1" as="geometry" />
        </mxCell>
        <mxCell id="gJ5ldzgGzaQahjb0mv15-3" value="HasStateM" style="rhombus;whiteSpace=wrap;html=1;fillColor=#1ba1e2;fontColor=#ffffff;strokeColor=#006EAF;" parent="1" vertex="1">
          <mxGeometry x="440" y="95" width="80" height="80" as="geometry" />
        </mxCell>
        <mxCell id="gJ5ldzgGzaQahjb0mv15-4" value="StateOfManage" style="rounded=0;whiteSpace=wrap;html=1;fillColor=#1ba1e2;fontColor=#ffffff;strokeColor=#006EAF;" parent="1" vertex="1">
          <mxGeometry x="697" y="105" width="120" height="60" as="geometry" />
        </mxCell>
        <mxCell id="gJ5ldzgGzaQahjb0mv15-9" value="" style="endArrow=none;html=1;rounded=1;labelBackgroundColor=default;strokeColor=default;fontFamily=Helvetica;fontSize=13;fontColor=default;fillColor=none;shape=connector;" parent="1" edge="1">
          <mxGeometry width="50" height="50" relative="1" as="geometry">
            <mxPoint x="682.5" y="150" as="sourcePoint" />
            <mxPoint x="682.5" y="85" as="targetPoint" />
          </mxGeometry>
        </mxCell>
        <mxCell id="gJ5ldzgGzaQahjb0mv15-14" style="edgeStyle=orthogonalEdgeStyle;shape=connector;rounded=1;orthogonalLoop=1;jettySize=auto;html=1;labelBackgroundColor=default;strokeColor=default;fontFamily=Helvetica;fontSize=11;fontColor=default;endArrow=none;endFill=0;fillColor=none;" parent="1" source="gJ5ldzgGzaQahjb0mv15-13" edge="1">
          <mxGeometry relative="1" as="geometry">
            <mxPoint x="704.5" y="105" as="targetPoint" />
          </mxGeometry>
        </mxCell>
        <mxCell id="gJ5ldzgGzaQahjb0mv15-13" value="" style="ellipse;whiteSpace=wrap;html=1;fontSize=13;rounded=0;" parent="1" vertex="1">
          <mxGeometry x="697" y="60" width="15" height="15" as="geometry" />
        </mxCell>
        <mxCell id="gJ5ldzgGzaQahjb0mv15-88" value="startDate" style="text;html=1;align=center;verticalAlign=middle;resizable=0;points=[];autosize=1;strokeColor=none;fillColor=none;fontSize=11;fontFamily=Helvetica;fontColor=default;" parent="1" vertex="1">
          <mxGeometry x="660" y="30" width="70" height="30" as="geometry" />
        </mxCell>
        <mxCell id="gJ5ldzgGzaQahjb0mv15-94" style="edgeStyle=orthogonalEdgeStyle;shape=connector;rounded=1;orthogonalLoop=1;jettySize=auto;html=1;labelBackgroundColor=default;strokeColor=default;fontFamily=Helvetica;fontSize=11;fontColor=default;endArrow=none;endFill=0;fillColor=none;" parent="1" source="gJ5ldzgGzaQahjb0mv15-91" edge="1">
          <mxGeometry relative="1" as="geometry">
            <mxPoint x="682.5000000000001" y="86" as="targetPoint" />
          </mxGeometry>
        </mxCell>
        <mxCell id="gJ5ldzgGzaQahjb0mv15-91" value="" style="ellipse;whiteSpace=wrap;html=1;aspect=fixed;fontFamily=Helvetica;fontSize=11;fontColor=default;fillColor=#000000;" parent="1" vertex="1">
          <mxGeometry x="716" y="77" width="18" height="18" as="geometry" />
        </mxCell>
        <mxCell id="25Zu7PeEIxpEX03kHfXG-2" style="edgeStyle=orthogonalEdgeStyle;rounded=1;orthogonalLoop=1;jettySize=auto;html=1;entryX=0.5;entryY=0;entryDx=0;entryDy=0;endArrow=none;endFill=0;fillColor=none;" parent="1" source="25Zu7PeEIxpEX03kHfXG-1" target="gJ5ldzgGzaQahjb0mv15-4" edge="1">
          <mxGeometry relative="1" as="geometry" />
        </mxCell>
        <mxCell id="25Zu7PeEIxpEX03kHfXG-1" value="" style="ellipse;whiteSpace=wrap;html=1;aspect=fixed;fontFamily=Helvetica;fontSize=11;fontColor=default;" parent="1" vertex="1">
          <mxGeometry x="749.5" y="60" width="15" height="15" as="geometry" />
        </mxCell>
        <mxCell id="25Zu7PeEIxpEX03kHfXG-3" value="teamID" style="text;html=1;align=center;verticalAlign=middle;resizable=0;points=[];autosize=1;strokeColor=none;fillColor=none;fontSize=11;fontFamily=Helvetica;fontColor=default;" parent="1" vertex="1">
          <mxGeometry x="727" y="30" width="60" height="30" as="geometry" />
        </mxCell>
        <mxCell id="25Zu7PeEIxpEX03kHfXG-4" value="&lt;font style=&quot;font-size: 13px;&quot;&gt;(1,1)&lt;/font&gt;" style="text;html=1;align=center;verticalAlign=middle;resizable=0;points=[];autosize=1;strokeColor=none;fillColor=none;fontSize=11;fontFamily=Helvetica;fontColor=default;" parent="1" vertex="1">
          <mxGeometry x="520" y="112.5" width="50" height="30" as="geometry" />
        </mxCell>
        <mxCell id="25Zu7PeEIxpEX03kHfXG-5" value="&lt;font style=&quot;font-size: 13px;&quot;&gt;(1,1)&lt;/font&gt;" style="text;html=1;align=center;verticalAlign=middle;resizable=0;points=[];autosize=1;strokeColor=none;fillColor=none;fontSize=11;fontFamily=Helvetica;fontColor=default;" parent="1" vertex="1">
          <mxGeometry x="822.5" y="105" width="50" height="30" as="geometry" />
        </mxCell>
        <mxCell id="25Zu7PeEIxpEX03kHfXG-7" style="edgeStyle=orthogonalEdgeStyle;shape=connector;rounded=1;orthogonalLoop=1;jettySize=auto;html=1;entryX=0.813;entryY=-0.002;entryDx=0;entryDy=0;entryPerimeter=0;labelBackgroundColor=default;strokeColor=default;fontFamily=Helvetica;fontSize=13;fontColor=default;endArrow=none;endFill=0;fillColor=none;" parent="1" source="25Zu7PeEIxpEX03kHfXG-6" target="1nyOireFhNk5vsuvswtc-6" edge="1">
          <mxGeometry relative="1" as="geometry" />
        </mxCell>
        <mxCell id="25Zu7PeEIxpEX03kHfXG-6" value="" style="ellipse;whiteSpace=wrap;html=1;fontSize=13;rounded=0;fillColor=#FFFFFF;" parent="1" vertex="1">
          <mxGeometry x="635" y="672.5" width="15" height="15" as="geometry" />
        </mxCell>
        <mxCell id="25Zu7PeEIxpEX03kHfXG-8" value="appearances" style="text;html=1;align=center;verticalAlign=middle;resizable=0;points=[];autosize=1;strokeColor=none;fillColor=none;fontSize=13;fontFamily=Helvetica;fontColor=default;" parent="1" vertex="1">
          <mxGeometry x="600" y="645" width="100" height="30" as="geometry" />
        </mxCell>
        <mxCell id="25Zu7PeEIxpEX03kHfXG-15" style="edgeStyle=orthogonalEdgeStyle;shape=connector;rounded=1;orthogonalLoop=1;jettySize=auto;html=1;entryX=-0.004;entryY=0.875;entryDx=0;entryDy=0;entryPerimeter=0;labelBackgroundColor=default;strokeColor=default;fontFamily=Helvetica;fontSize=13;fontColor=default;endArrow=none;endFill=0;fillColor=none;" parent="1" source="25Zu7PeEIxpEX03kHfXG-14" target="1nyOireFhNk5vsuvswtc-3" edge="1">
          <mxGeometry relative="1" as="geometry" />
        </mxCell>
        <mxCell id="25Zu7PeEIxpEX03kHfXG-14" value="" style="ellipse;whiteSpace=wrap;html=1;aspect=fixed;fontFamily=Helvetica;fontSize=11;fontColor=default;" parent="1" vertex="1">
          <mxGeometry x="182.5" y="305" width="15" height="15" as="geometry" />
        </mxCell>
        <mxCell id="25Zu7PeEIxpEX03kHfXG-16" value="teamID" style="text;html=1;align=center;verticalAlign=middle;resizable=0;points=[];autosize=1;strokeColor=none;fillColor=none;fontSize=13;fontFamily=Helvetica;fontColor=default;" parent="1" vertex="1">
          <mxGeometry x="115" y="295" width="70" height="30" as="geometry" />
        </mxCell>
        <mxCell id="w1rOjMdurzv241d1_XQd-64" style="edgeStyle=orthogonalEdgeStyle;shape=connector;rounded=1;orthogonalLoop=1;jettySize=auto;html=1;labelBackgroundColor=default;strokeColor=default;fontFamily=Helvetica;fontSize=11;fontColor=default;endArrow=none;endFill=0;fillColor=none;entryX=1.004;entryY=0.8;entryDx=0;entryDy=0;entryPerimeter=0;" parent="1" source="w1rOjMdurzv241d1_XQd-1" target="1nyOireFhNk5vsuvswtc-47" edge="1">
          <mxGeometry relative="1" as="geometry">
            <mxPoint x="1252.5" y="760" as="targetPoint" />
          </mxGeometry>
        </mxCell>
        <mxCell id="w1rOjMdurzv241d1_XQd-1" value="" style="ellipse;whiteSpace=wrap;html=1;fontSize=13;rounded=0;fillColor=none;" parent="1" vertex="1">
          <mxGeometry x="1280" y="752.5" width="15" height="15" as="geometry" />
        </mxCell>
        <mxCell id="w1rOjMdurzv241d1_XQd-5" value="sponsorID" style="text;html=1;align=center;verticalAlign=middle;resizable=0;points=[];autosize=1;strokeColor=none;fillColor=none;" parent="1" vertex="1">
          <mxGeometry x="1285" y="705" width="80" height="30" as="geometry" />
        </mxCell>
        <mxCell id="w1rOjMdurzv241d1_XQd-10" style="edgeStyle=orthogonalEdgeStyle;shape=connector;rounded=1;orthogonalLoop=1;jettySize=auto;html=1;entryX=0.146;entryY=1;entryDx=0;entryDy=0;entryPerimeter=0;labelBackgroundColor=default;strokeColor=default;fontFamily=Helvetica;fontSize=13;fontColor=default;endArrow=none;endFill=0;fillColor=none;" parent="1" edge="1">
          <mxGeometry relative="1" as="geometry">
            <Array as="points">
              <mxPoint x="330.28" y="782" />
              <mxPoint x="330.28" y="782" />
            </Array>
            <mxPoint x="329.78" y="822" as="sourcePoint" />
            <mxPoint x="329.78" y="772" as="targetPoint" />
          </mxGeometry>
        </mxCell>
        <mxCell id="w1rOjMdurzv241d1_XQd-12" value="" style="ellipse;whiteSpace=wrap;html=1;fontSize=13;rounded=0;" parent="1" vertex="1">
          <mxGeometry x="322.5" y="822" width="15" height="15" as="geometry" />
        </mxCell>
        <mxCell id="w1rOjMdurzv241d1_XQd-13" value="nationality" style="text;html=1;align=center;verticalAlign=middle;resizable=0;points=[];autosize=1;strokeColor=none;fillColor=none;" parent="1" vertex="1">
          <mxGeometry x="290" y="832" width="80" height="30" as="geometry" />
        </mxCell>
        <mxCell id="w1rOjMdurzv241d1_XQd-14" style="edgeStyle=orthogonalEdgeStyle;shape=connector;rounded=1;orthogonalLoop=1;jettySize=auto;html=1;entryX=0.146;entryY=1;entryDx=0;entryDy=0;entryPerimeter=0;labelBackgroundColor=default;strokeColor=default;fontFamily=Helvetica;fontSize=13;fontColor=default;endArrow=none;endFill=0;fillColor=none;" parent="1" edge="1">
          <mxGeometry relative="1" as="geometry">
            <Array as="points">
              <mxPoint x="1228" y="782" />
              <mxPoint x="1228" y="782" />
            </Array>
            <mxPoint x="1227.5" y="822" as="sourcePoint" />
            <mxPoint x="1227.5" y="772" as="targetPoint" />
          </mxGeometry>
        </mxCell>
        <mxCell id="w1rOjMdurzv241d1_XQd-15" value="" style="ellipse;whiteSpace=wrap;html=1;fontSize=13;rounded=0;" parent="1" vertex="1">
          <mxGeometry x="1220" y="822" width="15" height="15" as="geometry" />
        </mxCell>
        <mxCell id="w1rOjMdurzv241d1_XQd-16" value="foundationYear" style="text;html=1;align=center;verticalAlign=middle;resizable=0;points=[];autosize=1;strokeColor=none;fillColor=none;" parent="1" vertex="1">
          <mxGeometry x="1190" y="832" width="100" height="30" as="geometry" />
        </mxCell>
        <mxCell id="w1rOjMdurzv241d1_XQd-17" style="edgeStyle=orthogonalEdgeStyle;shape=connector;rounded=1;orthogonalLoop=1;jettySize=auto;html=1;entryX=0.146;entryY=1;entryDx=0;entryDy=0;entryPerimeter=0;labelBackgroundColor=default;strokeColor=default;fontFamily=Helvetica;fontSize=13;fontColor=default;endArrow=none;endFill=0;fillColor=none;" parent="1" edge="1">
          <mxGeometry relative="1" as="geometry">
            <Array as="points">
              <mxPoint x="1167.8" y="782" />
              <mxPoint x="1167.8" y="782" />
            </Array>
            <mxPoint x="1167.3" y="822" as="sourcePoint" />
            <mxPoint x="1167.3" y="772" as="targetPoint" />
          </mxGeometry>
        </mxCell>
        <mxCell id="w1rOjMdurzv241d1_XQd-18" value="industry" style="text;html=1;align=center;verticalAlign=middle;resizable=0;points=[];autosize=1;strokeColor=none;fillColor=none;" parent="1" vertex="1">
          <mxGeometry x="1130" y="832" width="70" height="30" as="geometry" />
        </mxCell>
        <mxCell id="w1rOjMdurzv241d1_XQd-19" value="" style="ellipse;whiteSpace=wrap;html=1;fontSize=13;rounded=0;" parent="1" vertex="1">
          <mxGeometry x="1160" y="822" width="15" height="15" as="geometry" />
        </mxCell>
        <mxCell id="w1rOjMdurzv241d1_XQd-20" value="" style="ellipse;whiteSpace=wrap;html=1;fontSize=13;rounded=0;" parent="1" vertex="1">
          <mxGeometry x="1050" y="582.5" width="15" height="15" as="geometry" />
        </mxCell>
        <mxCell id="w1rOjMdurzv241d1_XQd-21" style="edgeStyle=orthogonalEdgeStyle;shape=connector;rounded=1;orthogonalLoop=1;jettySize=auto;html=1;entryX=1;entryY=0.5;entryDx=0;entryDy=0;labelBackgroundColor=default;strokeColor=default;fontFamily=Helvetica;fontSize=13;fontColor=default;endArrow=none;endFill=0;fillColor=none;" parent="1" edge="1">
          <mxGeometry relative="1" as="geometry">
            <mxPoint x="1050" y="589.57" as="sourcePoint" />
            <mxPoint x="1020" y="589.57" as="targetPoint" />
            <Array as="points">
              <mxPoint x="1022" y="589.57" />
              <mxPoint x="1022" y="589.57" />
            </Array>
          </mxGeometry>
        </mxCell>
        <mxCell id="w1rOjMdurzv241d1_XQd-22" value="captainSince" style="text;html=1;align=center;verticalAlign=middle;resizable=0;points=[];autosize=1;strokeColor=none;fillColor=none;" parent="1" vertex="1">
          <mxGeometry x="1060" y="575" width="90" height="30" as="geometry" />
        </mxCell>
        <mxCell id="w1rOjMdurzv241d1_XQd-27" style="edgeStyle=orthogonalEdgeStyle;shape=connector;rounded=1;orthogonalLoop=1;jettySize=auto;html=1;labelBackgroundColor=default;strokeColor=default;fontFamily=Helvetica;fontSize=11;fontColor=default;endArrow=none;endFill=0;fillColor=none;" parent="1" source="w1rOjMdurzv241d1_XQd-23" target="w1rOjMdurzv241d1_XQd-26" edge="1">
          <mxGeometry relative="1" as="geometry" />
        </mxCell>
        <mxCell id="w1rOjMdurzv241d1_XQd-23" value="League" style="whiteSpace=wrap;html=1;fontSize=13;fillColor=#1ba1e2;strokeColor=#006EAF;fontColor=#ffffff;" parent="1" vertex="1">
          <mxGeometry x="1402.5" y="105" width="120" height="60" as="geometry" />
        </mxCell>
        <mxCell id="w1rOjMdurzv241d1_XQd-28" style="edgeStyle=orthogonalEdgeStyle;shape=connector;rounded=1;orthogonalLoop=1;jettySize=auto;html=1;entryX=0.5;entryY=0;entryDx=0;entryDy=0;labelBackgroundColor=default;strokeColor=default;fontFamily=Helvetica;fontSize=11;fontColor=default;endArrow=none;endFill=0;fillColor=none;" parent="1" source="w1rOjMdurzv241d1_XQd-26" target="1nyOireFhNk5vsuvswtc-23" edge="1">
          <mxGeometry relative="1" as="geometry">
            <Array as="points">
              <mxPoint x="1189.5" y="135" />
            </Array>
          </mxGeometry>
        </mxCell>
        <mxCell id="w1rOjMdurzv241d1_XQd-26" value="ParticipatesIn" style="rhombus;whiteSpace=wrap;html=1;fontSize=13;fillColor=#1ba1e2;strokeColor=#006EAF;fontColor=#ffffff;rounded=0;" parent="1" vertex="1">
          <mxGeometry x="1264.38" y="90" width="86.25" height="90" as="geometry" />
        </mxCell>
        <mxCell id="w1rOjMdurzv241d1_XQd-29" value="(1,1)" style="text;html=1;align=center;verticalAlign=middle;resizable=0;points=[];autosize=1;strokeColor=none;fillColor=none;fontSize=13;fontFamily=Helvetica;fontColor=default;" parent="1" vertex="1">
          <mxGeometry x="1205" y="105" width="50" height="30" as="geometry" />
        </mxCell>
        <mxCell id="w1rOjMdurzv241d1_XQd-30" value="(2,n)" style="text;html=1;align=center;verticalAlign=middle;resizable=0;points=[];autosize=1;strokeColor=none;fillColor=none;fontSize=13;fontFamily=Helvetica;fontColor=default;" parent="1" vertex="1">
          <mxGeometry x="1350.63" y="105" width="50" height="30" as="geometry" />
        </mxCell>
        <mxCell id="Dq-3STD-4CTayHQCGLS8-16" style="edgeStyle=orthogonalEdgeStyle;shape=connector;rounded=1;orthogonalLoop=1;jettySize=auto;html=1;entryX=0.062;entryY=0;entryDx=0;entryDy=0;entryPerimeter=0;labelBackgroundColor=default;strokeColor=default;fontFamily=Helvetica;fontSize=11;fontColor=default;endArrow=none;endFill=0;fillColor=none;" parent="1" source="w1rOjMdurzv241d1_XQd-32" target="w1rOjMdurzv241d1_XQd-23" edge="1">
          <mxGeometry relative="1" as="geometry" />
        </mxCell>
        <mxCell id="w1rOjMdurzv241d1_XQd-32" value="" style="ellipse;whiteSpace=wrap;html=1;fontSize=13;rounded=0;fillColor=#000000;" parent="1" vertex="1">
          <mxGeometry x="1402.5" y="60" width="15" height="15" as="geometry" />
        </mxCell>
        <mxCell id="Dq-3STD-4CTayHQCGLS8-18" style="edgeStyle=orthogonalEdgeStyle;shape=connector;rounded=1;orthogonalLoop=1;jettySize=auto;html=1;entryX=0.5;entryY=0;entryDx=0;entryDy=0;labelBackgroundColor=default;strokeColor=default;fontFamily=Helvetica;fontSize=11;fontColor=default;endArrow=none;endFill=0;fillColor=none;" parent="1" source="w1rOjMdurzv241d1_XQd-33" target="w1rOjMdurzv241d1_XQd-23" edge="1">
          <mxGeometry relative="1" as="geometry" />
        </mxCell>
        <mxCell id="w1rOjMdurzv241d1_XQd-33" value="" style="ellipse;whiteSpace=wrap;html=1;fontSize=13;rounded=0;fillColor=none;" parent="1" vertex="1">
          <mxGeometry x="1455" y="60" width="15" height="15" as="geometry" />
        </mxCell>
        <mxCell id="Dq-3STD-4CTayHQCGLS8-15" style="edgeStyle=orthogonalEdgeStyle;shape=connector;rounded=1;orthogonalLoop=1;jettySize=auto;html=1;entryX=0.936;entryY=0.004;entryDx=0;entryDy=0;entryPerimeter=0;labelBackgroundColor=default;strokeColor=default;fontFamily=Helvetica;fontSize=11;fontColor=default;endArrow=none;endFill=0;fillColor=none;" parent="1" source="w1rOjMdurzv241d1_XQd-34" target="w1rOjMdurzv241d1_XQd-23" edge="1">
          <mxGeometry relative="1" as="geometry" />
        </mxCell>
        <mxCell id="w1rOjMdurzv241d1_XQd-34" value="" style="ellipse;whiteSpace=wrap;html=1;fontSize=13;rounded=0;fillColor=none;" parent="1" vertex="1">
          <mxGeometry x="1507.5" y="60" width="15" height="15" as="geometry" />
        </mxCell>
        <mxCell id="w1rOjMdurzv241d1_XQd-37" value="leagueID" style="text;html=1;align=center;verticalAlign=middle;resizable=0;points=[];autosize=1;strokeColor=none;fillColor=none;fontSize=11;fontFamily=Helvetica;fontColor=default;" parent="1" vertex="1">
          <mxGeometry x="1375" y="30" width="70" height="30" as="geometry" />
        </mxCell>
        <mxCell id="w1rOjMdurzv241d1_XQd-41" value="name" style="text;html=1;align=center;verticalAlign=middle;resizable=0;points=[];autosize=1;strokeColor=none;fillColor=none;fontSize=11;fontFamily=Helvetica;fontColor=default;" parent="1" vertex="1">
          <mxGeometry x="1437.5" y="30" width="50" height="30" as="geometry" />
        </mxCell>
        <mxCell id="w1rOjMdurzv241d1_XQd-42" value="country" style="text;html=1;align=center;verticalAlign=middle;resizable=0;points=[];autosize=1;strokeColor=none;fillColor=none;fontSize=11;fontFamily=Helvetica;fontColor=default;" parent="1" vertex="1">
          <mxGeometry x="1482.5" y="30" width="60" height="30" as="geometry" />
        </mxCell>
        <mxCell id="w1rOjMdurzv241d1_XQd-49" value="numTeams" style="text;html=1;align=center;verticalAlign=middle;resizable=0;points=[];autosize=1;strokeColor=none;fillColor=none;fontSize=11;fontFamily=Helvetica;fontColor=default;" parent="1" vertex="1">
          <mxGeometry x="1552.5" y="145" width="80" height="30" as="geometry" />
        </mxCell>
        <mxCell id="w1rOjMdurzv241d1_XQd-52" value="startDate" style="text;html=1;align=center;verticalAlign=middle;resizable=0;points=[];autosize=1;strokeColor=none;fillColor=none;fontSize=11;fontFamily=Helvetica;fontColor=default;" parent="1" vertex="1">
          <mxGeometry x="1552.5" y="120" width="70" height="30" as="geometry" />
        </mxCell>
        <mxCell id="w1rOjMdurzv241d1_XQd-55" value="endDate" style="text;html=1;align=center;verticalAlign=middle;resizable=0;points=[];autosize=1;strokeColor=none;fillColor=none;fontSize=11;fontFamily=Helvetica;fontColor=default;" parent="1" vertex="1">
          <mxGeometry x="1552.5" y="97.5" width="70" height="30" as="geometry" />
        </mxCell>
        <mxCell id="Dq-3STD-4CTayHQCGLS8-11" style="edgeStyle=orthogonalEdgeStyle;shape=connector;rounded=1;orthogonalLoop=1;jettySize=auto;html=1;entryX=1;entryY=0.125;entryDx=0;entryDy=0;entryPerimeter=0;labelBackgroundColor=default;strokeColor=default;fontFamily=Helvetica;fontSize=11;fontColor=default;endArrow=none;endFill=0;fillColor=none;" parent="1" source="w1rOjMdurzv241d1_XQd-59" target="w1rOjMdurzv241d1_XQd-23" edge="1">
          <mxGeometry relative="1" as="geometry" />
        </mxCell>
        <mxCell id="w1rOjMdurzv241d1_XQd-59" value="" style="ellipse;whiteSpace=wrap;html=1;fontSize=13;rounded=0;fillColor=none;" parent="1" vertex="1">
          <mxGeometry x="1542.5" y="105" width="15" height="15" as="geometry" />
        </mxCell>
        <mxCell id="Dq-3STD-4CTayHQCGLS8-10" style="edgeStyle=orthogonalEdgeStyle;shape=connector;rounded=1;orthogonalLoop=1;jettySize=auto;html=1;entryX=1.012;entryY=0.882;entryDx=0;entryDy=0;entryPerimeter=0;labelBackgroundColor=default;strokeColor=default;fontFamily=Helvetica;fontSize=11;fontColor=default;endArrow=none;endFill=0;fillColor=none;" parent="1" source="w1rOjMdurzv241d1_XQd-61" target="w1rOjMdurzv241d1_XQd-23" edge="1">
          <mxGeometry relative="1" as="geometry" />
        </mxCell>
        <mxCell id="w1rOjMdurzv241d1_XQd-61" value="" style="ellipse;whiteSpace=wrap;html=1;fontSize=13;rounded=0;fillColor=none;" parent="1" vertex="1">
          <mxGeometry x="1542.5" y="150" width="15" height="15" as="geometry" />
        </mxCell>
        <mxCell id="w1rOjMdurzv241d1_XQd-62" value="" style="ellipse;whiteSpace=wrap;html=1;fontSize=13;rounded=0;fillColor=none;" parent="1" vertex="1">
          <mxGeometry x="1512.5" y="230" width="10" as="geometry" />
        </mxCell>
        <mxCell id="Dq-3STD-4CTayHQCGLS8-2" value="" style="ellipse;whiteSpace=wrap;html=1;fontSize=13;rounded=0;fillColor=#000000;" parent="1" vertex="1">
          <mxGeometry x="1260" y="692.5" width="15" height="15" as="geometry" />
        </mxCell>
        <mxCell id="Dq-3STD-4CTayHQCGLS8-3" style="edgeStyle=orthogonalEdgeStyle;rounded=1;orthogonalLoop=1;jettySize=auto;html=1;endArrow=none;fontSize=13;endFill=0;fillColor=none;" parent="1" edge="1">
          <mxGeometry relative="1" as="geometry">
            <mxPoint x="1267.3" y="707.5" as="sourcePoint" />
            <mxPoint x="1267.5" y="770" as="targetPoint" />
            <Array as="points">
              <mxPoint x="1267.3" y="722.5" />
              <mxPoint x="1267.3" y="722.5" />
            </Array>
          </mxGeometry>
        </mxCell>
        <mxCell id="Dq-3STD-4CTayHQCGLS8-21" style="edgeStyle=orthogonalEdgeStyle;shape=connector;rounded=1;orthogonalLoop=1;jettySize=auto;html=1;labelBackgroundColor=default;strokeColor=default;fontFamily=Helvetica;fontSize=11;fontColor=default;endArrow=none;endFill=0;fillColor=none;" parent="1" source="Dq-3STD-4CTayHQCGLS8-7" target="w1rOjMdurzv241d1_XQd-23" edge="1">
          <mxGeometry relative="1" as="geometry" />
        </mxCell>
        <mxCell id="Dq-3STD-4CTayHQCGLS8-24" style="edgeStyle=orthogonalEdgeStyle;shape=connector;orthogonalLoop=1;jettySize=auto;html=1;labelBackgroundColor=default;strokeColor=default;fontFamily=Helvetica;fontSize=11;fontColor=default;endArrow=none;endFill=0;fillColor=none;entryX=0.52;entryY=0.001;entryDx=0;entryDy=0;entryPerimeter=0;rounded=1;" parent="1" source="Dq-3STD-4CTayHQCGLS8-7" target="1nyOireFhNk5vsuvswtc-47" edge="1">
          <mxGeometry relative="1" as="geometry">
            <mxPoint x="1192.5" y="710" as="targetPoint" />
            <Array as="points">
              <mxPoint x="1462.5" y="630" />
              <mxPoint x="1192.5" y="630" />
            </Array>
          </mxGeometry>
        </mxCell>
        <mxCell id="Dq-3STD-4CTayHQCGLS8-7" value="L-Sponsorhsip" style="rhombus;whiteSpace=wrap;html=1;fontSize=13;fillColor=#1ba1e2;strokeColor=#006EAF;fontColor=#ffffff;" parent="1" vertex="1">
          <mxGeometry x="1392.5" y="445" width="140" height="110" as="geometry" />
        </mxCell>
        <mxCell id="Dq-3STD-4CTayHQCGLS8-14" style="edgeStyle=orthogonalEdgeStyle;shape=connector;rounded=1;orthogonalLoop=1;jettySize=auto;html=1;entryX=1;entryY=0.5;entryDx=0;entryDy=0;labelBackgroundColor=default;strokeColor=default;fontFamily=Helvetica;fontSize=11;fontColor=default;endArrow=none;endFill=0;fillColor=none;" parent="1" source="Dq-3STD-4CTayHQCGLS8-13" target="w1rOjMdurzv241d1_XQd-23" edge="1">
          <mxGeometry relative="1" as="geometry" />
        </mxCell>
        <mxCell id="Dq-3STD-4CTayHQCGLS8-13" value="" style="ellipse;whiteSpace=wrap;html=1;fontSize=13;rounded=0;fillColor=none;" parent="1" vertex="1">
          <mxGeometry x="1542.5" y="127.5" width="15" height="15" as="geometry" />
        </mxCell>
        <mxCell id="Dq-3STD-4CTayHQCGLS8-25" value="(0,n)" style="text;html=1;align=center;verticalAlign=middle;resizable=0;points=[];autosize=1;strokeColor=none;fillColor=none;fontSize=13;fontFamily=Helvetica;fontColor=default;" parent="1" vertex="1">
          <mxGeometry x="1412.5" y="597.5" width="50" height="30" as="geometry" />
        </mxCell>
        <mxCell id="Dq-3STD-4CTayHQCGLS8-26" value="(0,n)" style="text;html=1;align=center;verticalAlign=middle;resizable=0;points=[];autosize=1;strokeColor=none;fillColor=none;fontSize=13;fontFamily=Helvetica;fontColor=default;" parent="1" vertex="1">
          <mxGeometry x="1422.5" y="165" width="50" height="30" as="geometry" />
        </mxCell>
        <mxCell id="Dq-3STD-4CTayHQCGLS8-27" value="type" style="text;html=1;align=center;verticalAlign=middle;resizable=0;points=[];autosize=1;strokeColor=none;fillColor=none;fontSize=13;fontFamily=Helvetica;fontColor=default;" parent="1" vertex="1">
          <mxGeometry x="1552.5" y="445" width="50" height="30" as="geometry" />
        </mxCell>
        <mxCell id="Dq-3STD-4CTayHQCGLS8-28" value="" style="ellipse;whiteSpace=wrap;html=1;fontSize=13;rounded=0;" parent="1" vertex="1">
          <mxGeometry x="1492.5" y="415" width="15" height="15" as="geometry" />
        </mxCell>
        <mxCell id="Dq-3STD-4CTayHQCGLS8-29" value="" style="endArrow=none;html=1;rounded=1;labelBackgroundColor=default;strokeColor=default;fontFamily=Helvetica;fontSize=13;fontColor=default;fillColor=none;shape=connector;entryX=0.119;entryY=0.875;entryDx=0;entryDy=0;entryPerimeter=0;exitX=0.57;exitY=0.061;exitDx=0;exitDy=0;exitPerimeter=0;" parent="1" source="Dq-3STD-4CTayHQCGLS8-7" edge="1">
          <mxGeometry width="50" height="50" relative="1" as="geometry">
            <mxPoint x="1472.5" y="451.5" as="sourcePoint" />
            <mxPoint x="1495.5" y="428.5" as="targetPoint" />
            <Array as="points">
              <mxPoint x="1484" y="440.5" />
            </Array>
          </mxGeometry>
        </mxCell>
        <mxCell id="Dq-3STD-4CTayHQCGLS8-30" value="" style="ellipse;whiteSpace=wrap;html=1;fontSize=13;rounded=0;" parent="1" vertex="1">
          <mxGeometry x="1520" y="435" width="15" height="15" as="geometry" />
        </mxCell>
        <mxCell id="Dq-3STD-4CTayHQCGLS8-31" value="" style="endArrow=none;html=1;rounded=1;labelBackgroundColor=default;strokeColor=default;fontFamily=Helvetica;fontSize=13;fontColor=default;fillColor=none;shape=connector;exitX=0.734;exitY=0.223;exitDx=0;exitDy=0;exitPerimeter=0;" parent="1" edge="1">
          <mxGeometry width="50" height="50" relative="1" as="geometry">
            <mxPoint x="1497.5" y="472.5" as="sourcePoint" />
            <mxPoint x="1522.5" y="447.5" as="targetPoint" />
          </mxGeometry>
        </mxCell>
        <mxCell id="Dq-3STD-4CTayHQCGLS8-32" value="startDate" style="text;html=1;align=center;verticalAlign=middle;resizable=0;points=[];autosize=1;strokeColor=none;fillColor=none;fontSize=13;fontFamily=Helvetica;fontColor=default;" parent="1" vertex="1">
          <mxGeometry x="1502.5" y="400" width="80" height="30" as="geometry" />
        </mxCell>
        <mxCell id="Dq-3STD-4CTayHQCGLS8-33" value="" style="ellipse;whiteSpace=wrap;html=1;fontSize=13;rounded=0;" parent="1" vertex="1">
          <mxGeometry x="1542.5" y="460" width="15" height="15" as="geometry" />
        </mxCell>
        <mxCell id="Dq-3STD-4CTayHQCGLS8-35" value="" style="endArrow=none;html=1;rounded=1;labelBackgroundColor=default;strokeColor=default;fontFamily=Helvetica;fontSize=13;fontColor=default;fillColor=none;shape=connector;entryX=0.061;entryY=0.841;entryDx=0;entryDy=0;entryPerimeter=0;exitX=0.932;exitY=0.431;exitDx=0;exitDy=0;exitPerimeter=0;" parent="1" source="Dq-3STD-4CTayHQCGLS8-7" target="Dq-3STD-4CTayHQCGLS8-33" edge="1">
          <mxGeometry width="50" height="50" relative="1" as="geometry">
            <mxPoint x="1520" y="495" as="sourcePoint" />
            <mxPoint x="1545" y="470" as="targetPoint" />
          </mxGeometry>
        </mxCell>
        <mxCell id="Dq-3STD-4CTayHQCGLS8-36" value="endDate" style="text;html=1;align=center;verticalAlign=middle;resizable=0;points=[];autosize=1;strokeColor=none;fillColor=none;fontSize=13;fontFamily=Helvetica;fontColor=default;" parent="1" vertex="1">
          <mxGeometry x="1532.5" y="425" width="70" height="30" as="geometry" />
        </mxCell>
        <mxCell id="caGV76I2_BBcBLNuLfKZ-1" value="" style="endArrow=none;html=1;rounded=0;" parent="1" edge="1">
          <mxGeometry width="50" height="50" relative="1" as="geometry">
            <mxPoint x="942" y="705.5" as="sourcePoint" />
            <mxPoint x="894.5" y="658" as="targetPoint" />
          </mxGeometry>
        </mxCell>
        <mxCell id="caGV76I2_BBcBLNuLfKZ-2" value="" style="ellipse;whiteSpace=wrap;html=1;fontSize=13;rounded=0;fillColor=#000000;" parent="1" vertex="1">
          <mxGeometry x="885" y="645" width="15" height="15" as="geometry" />
        </mxCell>
        <mxCell id="caGV76I2_BBcBLNuLfKZ-3" value="" style="endArrow=none;html=1;rounded=0;" parent="1" edge="1">
          <mxGeometry width="50" height="50" relative="1" as="geometry">
            <mxPoint x="1252.5" y="470" as="sourcePoint" />
            <mxPoint x="1205" y="422.5" as="targetPoint" />
          </mxGeometry>
        </mxCell>
        <mxCell id="caGV76I2_BBcBLNuLfKZ-4" value="" style="ellipse;whiteSpace=wrap;html=1;fontSize=13;rounded=0;fillColor=#000000;" parent="1" vertex="1">
          <mxGeometry x="1195" y="407.5" width="15" height="15" as="geometry" />
        </mxCell>
        <mxCell id="caGV76I2_BBcBLNuLfKZ-5" value="" style="endArrow=none;html=1;rounded=0;" parent="1" edge="1">
          <mxGeometry width="50" height="50" relative="1" as="geometry">
            <mxPoint x="1523.75" y="475" as="sourcePoint" />
            <mxPoint x="1476.25" y="427.5" as="targetPoint" />
          </mxGeometry>
        </mxCell>
        <mxCell id="caGV76I2_BBcBLNuLfKZ-6" value="" style="ellipse;whiteSpace=wrap;html=1;fontSize=13;rounded=0;fillColor=#000000;" parent="1" vertex="1">
          <mxGeometry x="1467.5" y="415" width="15" height="15" as="geometry" />
        </mxCell>
        <mxCell id="y_ma9Ac99zZdeq9Z3c9l-9" value="teamID" style="text;html=1;align=center;verticalAlign=middle;resizable=0;points=[];autosize=1;strokeColor=none;fillColor=none;fontSize=13;fontFamily=Helvetica;fontColor=default;" vertex="1" parent="1">
          <mxGeometry x="575" y="377.5" width="70" height="30" as="geometry" />
        </mxCell>
        <mxCell id="y_ma9Ac99zZdeq9Z3c9l-12" style="edgeStyle=orthogonalEdgeStyle;shape=connector;rounded=1;orthogonalLoop=1;jettySize=auto;html=1;entryX=0.5;entryY=1;entryDx=0;entryDy=0;labelBackgroundColor=default;strokeColor=default;fontFamily=Helvetica;fontSize=13;fontColor=default;endArrow=none;endFill=0;fillColor=none;" edge="1" parent="1" source="y_ma9Ac99zZdeq9Z3c9l-11" target="1nyOireFhNk5vsuvswtc-14">
          <mxGeometry relative="1" as="geometry" />
        </mxCell>
        <mxCell id="y_ma9Ac99zZdeq9Z3c9l-11" value="" style="ellipse;whiteSpace=wrap;html=1;fontSize=13;rounded=0;" vertex="1" parent="1">
          <mxGeometry x="602.5" y="362.5" width="15" height="15" as="geometry" />
        </mxCell>
      </root>
    </mxGraphModel>
  </diagram>
</mxfile>
